<?xml version="1.0" encoding="UTF-8" ?>
<!DOCTYPE svg PUBLIC "-//W3C//DTD SVG 1.1//EN" "http://www.w3.org/Graphics/SVG/1.1/DTD/svg11.dtd">
<svg width="769pt" height="755pt" viewBox="0 0 769 755" version="1.1" xmlns="http://www.w3.org/2000/svg">
<g id="#605f5f3f">
<path fill="#605f5f" opacity="0.25" d=" M 597.99 52.22 C 602.72 51.43 607.59 51.29 612.21 49.93 C 613.70 53.16 612.62 56.82 613.39 60.22 C 614.46 65.08 613.59 70.08 614.50 74.95 C 615.43 79.58 614.64 84.33 615.46 88.97 C 616.45 93.92 615.60 99.00 616.51 103.96 C 617.40 108.32 616.68 112.79 617.32 117.18 C 618.57 123.73 617.46 130.48 619.11 136.99 C 614.71 137.00 610.29 137.20 605.92 136.62 C 597.67 135.58 589.35 136.23 581.07 135.95 C 562.75 134.30 544.33 135.32 525.97 134.95 C 518.67 134.05 511.32 134.52 503.99 134.41 C 497.32 134.49 490.64 134.09 484.00 134.93 C 468.69 135.34 453.33 134.40 438.04 135.61 C 432.39 136.31 426.71 135.90 421.04 136.02 C 415.67 136.01 410.38 137.31 404.99 137.02 C 398.60 136.59 392.34 138.42 385.95 138.02 C 362.60 139.93 339.20 141.85 316.03 145.65 C 314.19 146.05 312.31 146.10 310.45 145.89 C 336.06 141.32 362.04 139.20 387.95 137.24 C 396.02 137.05 404.02 135.85 412.11 136.09 C 421.05 135.21 430.02 135.06 439.00 135.07 C 451.97 133.96 465.01 134.17 478.01 134.13 C 503.98 133.97 529.96 134.07 555.93 134.24 C 565.62 134.18 575.25 135.41 584.94 135.13 C 596.07 134.90 607.13 136.58 618.26 136.16 C 616.72 124.17 616.70 112.05 615.51 100.03 C 614.48 83.63 613.20 67.25 612.06 50.86 C 587.19 54.92 562.06 57.09 537.01 59.68 C 460.12 66.85 383.08 73.20 306.74 85.09 L 306.62 84.07 C 309.79 84.09 312.91 83.51 316.02 82.97 C 387.43 72.08 459.37 66.24 531.15 59.54 C 553.45 57.33 575.76 55.20 597.99 52.22 Z" />
<path fill="#605f5f" opacity="0.25" d=" M 294.18 86.25 C 298.34 86.19 302.36 84.50 306.53 85.12 C 302.75 85.81 298.97 86.57 295.15 86.96 L 294.18 86.25 Z" />
<path fill="#605f5f" opacity="0.25" d=" M 288.46 87.47 C 290.45 86.99 292.51 86.89 294.55 87.06 C 248.58 95.49 202.43 105.09 159.03 122.87 C 140.40 130.94 123.94 143.40 109.49 157.55 C 100.44 167.44 91.59 177.83 85.74 190.00 C 72.53 221.56 64.05 254.90 58.11 288.54 C 57.84 286.46 58.03 284.38 58.51 282.36 C 63.68 253.26 71.26 224.54 81.95 196.96 C 87.30 181.55 97.76 168.59 108.86 156.91 C 124.26 141.59 142.16 128.31 162.55 120.46 C 203.05 104.54 245.75 95.17 288.46 87.47 Z" />
<path fill="#605f5f" opacity="0.25" d=" M 278.06 152.32 C 288.77 150.00 299.41 147.30 310.29 145.91 L 310.35 146.90 C 308.24 147.03 306.12 147.14 304.05 147.60 C 287.00 150.94 270.05 154.82 253.27 159.36 C 230.29 165.80 207.44 173.65 186.87 185.96 C 172.95 194.51 159.65 205.77 153.16 221.14 C 143.13 247.26 135.77 274.41 131.24 302.02 C 130.80 303.32 131.52 305.49 130.02 306.18 C 132.94 283.27 138.91 260.83 145.85 238.82 C 149.58 227.82 153.12 216.45 160.26 207.09 C 172.23 192.51 188.86 182.72 205.82 174.98 C 228.99 164.83 253.44 157.95 278.06 152.32 Z" />
<path fill="#605f5f" opacity="0.25" d=" M 393.78 192.83 C 402.23 191.55 410.76 192.27 419.25 191.74 C 435.13 190.34 451.08 191.26 467.00 191.00 C 471.67 190.87 476.35 191.01 480.99 191.63 C 486.58 192.35 492.27 191.47 497.83 192.57 C 531.64 194.99 565.46 201.30 597.08 213.81 C 613.52 220.33 629.76 228.09 643.32 239.64 C 666.09 258.37 680.67 285.04 690.77 312.33 C 699.58 336.49 706.56 361.34 711.43 386.59 C 711.96 390.56 713.44 394.46 712.89 398.51 C 708.21 371.77 701.42 345.39 692.54 319.73 C 685.21 299.35 676.47 279.12 663.07 261.92 C 651.23 246.02 635.60 232.96 617.85 224.12 C 579.24 204.51 536.02 195.76 493.08 192.85 C 486.03 192.86 479.06 191.54 472.01 191.85 C 451.99 192.04 431.93 191.16 411.95 192.71 C 406.43 192.97 400.88 192.61 395.38 193.23 C 358.67 196.13 321.03 199.08 286.74 213.61 C 273.59 219.32 260.75 226.39 250.49 236.55 C 246.09 241.15 241.23 245.33 237.43 250.47 C 228.28 261.38 221.63 274.10 215.93 287.08 C 210.15 301.02 206.81 315.77 204.06 330.56 C 204.05 329.65 204.05 327.83 204.04 326.92 C 208.27 301.73 216.88 276.88 231.88 256.02 C 238.30 247.24 245.47 238.90 253.99 232.08 C 264.70 222.60 277.71 216.18 290.91 210.94 C 318.33 200.18 347.87 196.62 376.99 193.99 C 382.60 193.81 388.13 192.62 393.78 192.83 Z" />
<path fill="#605f5f" opacity="0.25" d=" M 386.96 271.16 C 415.85 262.14 446.59 259.67 476.63 262.65 C 516.74 266.58 556.64 279.78 588.93 304.32 C 596.73 309.99 603.28 317.11 609.98 323.99 C 619.64 335.36 627.67 348.35 632.20 362.64 C 634.92 371.32 636.80 380.25 638.45 389.20 C 641.10 404.36 643.27 419.65 644.08 435.03 C 645.45 446.96 644.76 459.01 644.95 471.00 C 645.14 483.56 644.25 496.14 642.13 508.53 C 641.44 503.97 643.26 499.56 643.09 495.00 C 644.09 489.70 644.00 484.33 644.03 478.97 C 644.91 471.34 644.58 463.65 644.52 456.00 C 643.42 448.37 644.66 440.61 643.21 433.01 C 642.40 418.34 640.18 403.77 637.66 389.29 C 635.37 377.85 633.27 366.24 628.59 355.47 C 618.48 331.48 599.70 312.03 578.14 297.89 C 550.24 279.53 517.78 268.81 484.82 264.26 C 468.99 262.60 452.94 260.81 437.05 262.85 C 414.79 263.78 392.94 269.40 372.16 277.25 C 358.59 283.07 346.43 291.60 333.33 298.36 C 320.05 306.29 308.18 316.34 296.89 326.86 C 289.75 334.09 282.35 341.04 274.83 347.86 C 271.99 350.28 270.52 355.57 273.83 358.20 C 297.55 382.66 326.77 403.92 360.88 410.37 L 361.73 411.20 C 332.63 406.49 306.72 390.24 285.30 370.58 C 280.56 366.74 276.00 362.58 272.14 357.86 C 270.56 354.24 271.11 348.92 274.64 346.58 C 283.17 339.89 289.73 331.02 298.33 324.39 C 310.91 312.01 325.24 301.29 340.89 293.10 C 351.81 286.82 362.56 280.09 374.30 275.42 C 378.55 274.08 382.75 272.61 386.96 271.16 Z" />
<path fill="#605f5f" opacity="0.25" d=" M 57.07 288.56 L 58.07 288.77 C 55.29 308.08 52.90 327.47 51.83 346.96 C 51.92 352.64 51.38 358.29 50.98 363.94 C 50.85 373.65 50.82 383.36 51.04 393.06 C 51.69 400.02 51.82 407.01 51.85 414.00 C 54.85 470.08 62.28 527.03 84.77 578.98 C 90.84 591.59 96.91 604.30 104.99 615.78 C 110.42 623.35 115.76 631.10 122.58 637.52 C 128.01 642.72 132.93 648.48 138.98 652.99 C 149.93 662.03 162.44 668.87 175.23 674.91 C 212.09 691.83 252.48 699.62 292.74 702.60 C 298.78 703.48 304.93 702.83 310.93 704.00 C 299.88 704.45 288.93 702.86 277.95 702.02 C 238.50 697.88 198.99 688.79 163.66 670.26 C 138.28 657.35 117.29 636.84 101.96 613.01 C 80.71 580.06 68.74 542.05 61.31 503.80 C 56.10 476.40 52.94 448.61 51.70 420.80 C 50.30 412.24 51.49 403.55 50.66 394.96 C 50.60 389.28 50.65 383.61 49.95 377.97 C 50.57 367.66 51.06 357.32 50.99 346.98 C 52.22 333.92 52.87 320.84 54.72 307.83 C 55.28 301.38 56.90 295.05 57.07 288.56 Z" />
<path fill="#605f5f" opacity="0.25" d=" M 125.33 347.06 C 126.55 333.66 127.32 320.19 129.86 306.96 C 130.20 313.34 128.20 319.64 127.98 326.03 C 126.95 332.30 127.04 338.66 126.07 344.94 C 126.36 353.97 124.83 362.93 125.00 371.96 C 125.03 380.63 124.79 389.32 125.68 397.96 C 126.45 403.93 125.46 409.99 126.67 415.91 C 127.71 432.85 129.87 449.73 132.43 466.53 C 136.22 490.34 140.55 514.25 149.06 536.90 C 155.46 553.56 162.16 570.53 173.39 584.62 C 182.71 596.66 195.49 606.09 209.92 611.07 C 224.37 615.84 239.12 619.70 254.02 622.82 C 258.78 623.66 263.49 624.98 268.35 625.11 L 268.27 626.09 C 255.79 624.38 243.54 621.42 231.35 618.33 C 217.90 614.64 204.09 611.13 192.23 603.50 C 185.25 599.06 179.64 592.90 173.95 586.97 C 167.63 579.36 162.45 570.76 158.48 561.70 C 149.79 543.48 143.12 524.29 138.67 504.60 C 133.54 480.63 129.71 456.38 127.29 431.99 C 126.19 420.00 125.01 408.00 125.03 395.95 C 123.51 379.67 124.91 363.34 125.33 347.06 Z" />
<path fill="#605f5f" opacity="0.25" d=" M 430.56 308.48 C 432.73 307.54 435.08 307.94 437.15 308.94 C 437.62 314.17 435.59 319.08 434.27 324.04 C 431.45 333.52 428.53 342.97 425.34 352.33 C 423.84 356.38 423.40 361.19 419.73 364.02 C 414.00 364.69 408.24 363.91 402.69 362.42 C 393.03 360.44 383.42 357.97 373.62 356.87 L 373.74 355.92 C 385.61 357.74 397.31 360.51 409.06 362.96 C 412.42 363.42 416.36 364.75 419.39 362.51 C 422.56 360.38 423.10 356.40 424.17 353.04 C 426.72 344.94 429.62 336.95 431.93 328.77 C 433.71 322.49 436.12 316.32 436.71 309.77 C 434.27 308.71 431.60 308.62 429.21 309.85 C 406.51 319.56 384.23 330.29 361.18 339.16 C 357.37 340.67 353.25 341.41 349.67 343.46 C 347.62 344.52 347.65 346.94 347.29 348.91 C 350.97 351.68 355.62 352.13 359.96 353.13 C 364.49 354.05 369.03 354.91 373.55 355.89 C 368.66 356.36 363.94 354.51 359.16 353.79 C 355.03 352.64 350.43 352.52 346.88 349.88 C 347.02 347.27 346.30 343.48 349.47 342.38 C 370.49 335.20 390.68 325.83 410.99 316.87 C 417.48 314.00 423.87 310.87 430.56 308.48 Z" />
<path fill="#605f5f" opacity="0.25" d=" M 203.26 330.14 L 203.95 331.17 C 203.51 337.44 202.49 343.65 202.00 349.91 C 201.55 355.80 201.87 361.72 201.28 367.60 C 201.02 369.95 200.95 372.32 201.21 374.67 C 202.06 382.45 201.39 390.31 202.38 398.08 C 204.01 415.73 205.39 433.46 209.04 450.85 C 213.11 469.48 219.62 488.22 232.02 503.02 C 241.06 515.04 254.40 522.88 267.79 529.23 C 293.37 542.47 321.24 550.76 349.51 555.90 C 348.62 555.91 346.83 555.94 345.93 555.96 C 313.50 550.16 281.91 539.14 253.31 522.70 C 236.76 513.11 224.31 497.42 217.06 479.86 C 205.74 453.07 204.00 423.62 201.48 395.05 C 200.66 390.75 201.06 386.38 201.00 382.04 C 201.11 377.20 200.25 372.37 200.74 367.54 C 201.41 360.54 200.34 353.46 201.74 346.53 C 201.85 341.03 203.05 335.64 203.26 330.14 Z" />
<path fill="#605f5f" opacity="0.25" d=" M 712.92 398.69 L 713.93 398.66 C 714.15 405.42 715.83 412.03 716.29 418.77 C 717.23 423.82 716.89 428.99 717.90 434.04 C 718.07 440.34 718.06 446.66 718.80 452.93 C 719.82 462.97 717.79 472.95 718.02 482.99 C 717.41 492.83 715.71 502.58 714.93 512.41 L 713.93 512.26 C 715.14 502.20 716.96 492.19 717.24 482.04 C 719.68 454.21 716.87 426.25 712.92 398.69 Z" />
<path fill="#605f5f" opacity="0.25" d=" M 362.05 411.28 C 363.25 410.18 366.76 410.05 366.94 412.06 C 365.27 412.09 363.62 411.82 362.05 411.28 Z" />
<path fill="#605f5f" opacity="0.25" d=" M 367.35 412.09 C 370.68 411.63 373.97 412.30 377.25 412.82 C 387.79 413.18 398.34 414.11 408.89 413.40 C 416.07 412.51 423.32 413.35 430.53 412.79 C 437.71 412.69 444.89 411.30 452.06 412.35 C 457.55 413.10 463.12 412.58 468.57 413.56 C 480.68 415.01 492.82 417.68 503.83 423.09 C 515.58 428.59 528.64 432.54 537.94 442.07 C 546.16 449.58 555.32 455.98 563.83 463.15 C 567.91 466.80 572.19 470.37 575.21 474.99 C 576.61 476.95 576.37 479.46 576.06 481.70 C 566.87 492.18 554.28 498.66 544.26 508.20 C 514.15 534.27 476.26 550.52 437.08 556.78 C 427.80 558.52 418.38 558.94 409.04 560.00 C 400.02 560.05 391.01 559.95 382.00 560.03 C 371.18 559.45 360.45 557.86 349.66 556.93 L 349.70 555.93 C 381.34 560.69 413.87 560.98 445.30 554.49 C 481.25 547.23 515.90 531.70 543.54 507.34 C 554.08 497.75 566.92 490.86 576.13 479.79 C 573.77 471.61 566.29 466.74 560.21 461.47 C 552.71 455.07 544.32 449.73 537.39 442.66 C 526.47 432.20 511.58 428.11 498.36 421.52 C 478.28 413.65 456.34 412.42 435.00 412.98 C 419.39 414.36 403.69 413.84 388.04 413.92 C 381.10 414.06 374.19 413.23 367.35 412.09 Z" />
<path fill="#605f5f" opacity="0.25" d=" M 457.15 472.32 C 457.88 470.98 460.95 471.33 460.67 473.09 C 459.42 473.35 458.21 472.91 457.15 472.32 Z" />
<path fill="#605f5f" opacity="0.25" d=" M 406.19 498.28 L 407.09 498.12 C 406.88 498.60 406.47 499.56 406.26 500.04 L 405.76 499.26 L 406.19 498.28 Z" />
<path fill="#605f5f" opacity="0.25" d=" M 641.10 508.62 L 642.10 508.73 C 639.04 529.80 632.31 550.64 620.44 568.45 C 615.99 575.17 611.31 581.97 604.69 586.76 C 583.80 605.18 556.84 615.19 529.74 620.07 L 529.60 619.14 C 541.06 617.54 552.21 613.99 563.08 610.08 C 581.70 603.07 599.17 592.37 612.61 577.58 C 624.84 562.56 633.07 544.58 637.89 525.90 C 639.20 520.19 640.92 514.50 641.10 508.62 Z" />
<path fill="#605f5f" opacity="0.25" d=" M 701.80 559.57 C 707.17 544.25 710.84 528.40 713.90 512.47 C 714.47 517.06 712.66 521.46 712.00 525.95 C 707.13 549.06 699.33 571.58 688.66 592.65 C 682.27 605.14 675.24 617.41 666.28 628.26 C 644.79 654.57 614.21 672.69 581.57 681.46 C 570.69 683.74 559.73 685.65 548.79 687.65 C 547.02 688.04 545.19 688.04 543.40 687.96 C 553.23 685.76 563.23 684.52 573.06 682.33 C 586.16 680.22 598.58 675.32 610.63 669.92 C 637.03 657.31 660.47 637.86 676.06 612.94 C 686.62 596.21 695.11 578.18 701.80 559.57 Z" />
<path fill="#605f5f" opacity="0.25" d=" M 519.92 621.22 C 523.12 620.80 526.29 619.64 529.56 620.11 C 517.18 622.87 504.53 624.13 491.95 625.51 C 463.76 627.93 435.53 629.65 407.29 631.23 C 398.55 632.31 389.71 631.40 380.97 632.44 C 367.00 633.02 353.00 632.86 339.02 632.72 C 315.42 631.68 291.73 630.45 268.45 626.12 C 274.03 625.66 279.46 627.59 285.01 627.92 C 294.97 629.36 305.00 629.95 314.99 630.98 C 323.37 630.63 331.66 632.39 340.05 632.00 C 357.37 631.70 374.75 632.77 392.02 631.03 C 397.66 630.81 403.34 631.35 408.94 630.47 C 414.56 629.48 420.31 630.48 425.94 629.51 C 431.20 628.49 436.60 629.47 441.87 628.46 C 446.52 627.55 451.29 628.39 455.95 627.57 C 461.20 626.49 466.62 627.46 471.87 626.37 C 487.94 625.36 504.00 623.80 519.92 621.22 Z" />
<path fill="#605f5f" opacity="0.25" d=" M 538.04 688.75 C 539.64 688.20 541.32 687.94 543.02 687.99 L 543.08 688.51 C 541.84 689.81 539.43 689.76 538.04 688.75 Z" />
<path fill="#605f5f" opacity="0.25" d=" M 404.99 703.18 C 449.45 700.99 493.76 695.80 537.73 688.82 L 536.86 689.71 C 500.67 695.41 464.28 700.02 427.77 702.42 C 422.26 703.54 416.60 702.55 411.08 703.55 C 405.75 704.43 400.34 703.76 394.98 704.13 C 377.37 705.76 359.66 704.70 342.00 705.00 C 331.29 704.70 320.50 705.78 309.88 704.06 L 310.93 704.00 C 334.96 704.30 359.00 704.04 383.03 704.14 C 390.37 704.33 397.64 702.98 404.99 703.18 Z" />
</g>
<g id="#231f20ff">
<path fill="#231f20" opacity="1.00" d=" M 537.01 59.68 C 562.06 57.09 587.19 54.92 612.06 50.86 C 613.20 67.25 614.48 83.63 615.51 100.03 C 616.70 112.05 616.72 124.17 618.26 136.16 C 607.13 136.58 596.07 134.90 584.94 135.13 C 575.25 135.41 565.62 134.18 555.93 134.24 C 529.96 134.07 503.98 133.97 478.01 134.13 C 465.01 134.17 451.97 133.96 439.00 135.07 C 430.02 135.06 421.05 135.21 412.11 136.09 C 404.02 135.85 396.02 137.05 387.95 137.24 C 362.04 139.20 336.06 141.32 310.45 145.89 L 310.29 145.91 C 299.41 147.30 288.77 150.00 278.06 152.32 C 253.44 157.95 228.99 164.83 205.82 174.98 C 188.86 182.72 172.23 192.51 160.26 207.09 C 153.12 216.45 149.58 227.82 145.85 238.82 C 138.91 260.83 132.94 283.27 130.02 306.18 L 129.86 306.96 C 127.32 320.19 126.55 333.66 125.33 347.06 C 124.91 363.34 123.51 379.67 125.03 395.95 C 125.01 408.00 126.19 420.00 127.29 431.99 C 129.71 456.38 133.54 480.63 138.67 504.60 C 143.12 524.29 149.79 543.48 158.48 561.70 C 162.45 570.76 167.63 579.36 173.95 586.97 C 179.64 592.90 185.25 599.06 192.23 603.50 C 204.09 611.13 217.90 614.64 231.35 618.33 C 243.54 621.42 255.79 624.38 268.27 626.09 L 268.45 626.12 C 291.73 630.45 315.42 631.68 339.02 632.72 C 353.00 632.86 367.00 633.02 380.97 632.44 C 389.71 631.40 398.55 632.31 407.29 631.23 C 435.53 629.65 463.76 627.93 491.95 625.51 C 504.53 624.13 517.18 622.87 529.56 620.11 L 529.74 620.07 C 556.84 615.19 583.80 605.18 604.69 586.76 C 611.31 581.97 615.99 575.17 620.44 568.45 C 632.31 550.64 639.04 529.80 642.10 508.73 L 642.13 508.53 C 644.25 496.14 645.14 483.56 644.95 471.00 C 644.76 459.01 645.45 446.96 644.08 435.03 C 643.27 419.65 641.10 404.36 638.45 389.20 C 636.80 380.25 634.92 371.32 632.20 362.64 C 627.67 348.35 619.64 335.36 609.98 323.99 C 603.28 317.11 596.73 309.99 588.93 304.32 C 556.64 279.78 516.74 266.58 476.63 262.65 C 446.59 259.67 415.85 262.14 386.96 271.16 C 382.75 272.61 378.55 274.08 374.30 275.42 C 362.56 280.09 351.81 286.82 340.89 293.10 C 325.24 301.29 310.91 312.01 298.33 324.39 C 289.73 331.02 283.17 339.89 274.64 346.58 C 271.11 348.92 270.56 354.24 272.14 357.86 C 276.00 362.58 280.56 366.74 285.30 370.58 C 306.72 390.24 332.63 406.49 361.73 411.20 L 362.05 411.28 C 363.62 411.82 365.27 412.09 366.94 412.06 L 367.35 412.09 C 374.19 413.23 381.10 414.06 388.04 413.92 C 403.69 413.84 419.39 414.36 435.00 412.98 C 456.34 412.42 478.28 413.65 498.36 421.52 C 511.58 428.11 526.47 432.20 537.39 442.66 C 544.32 449.73 552.71 455.07 560.21 461.47 C 566.29 466.74 573.77 471.61 576.13 479.79 C 566.92 490.86 554.08 497.75 543.54 507.34 C 515.90 531.70 481.25 547.23 445.30 554.49 C 413.87 560.98 381.34 560.69 349.70 555.93 L 349.51 555.90 C 321.24 550.76 293.37 542.47 267.79 529.23 C 254.40 522.88 241.06 515.04 232.02 503.02 C 219.62 488.22 213.11 469.48 209.04 450.85 C 205.39 433.46 204.01 415.73 202.38 398.08 C 201.39 390.31 202.06 382.45 201.21 374.67 C 200.95 372.32 201.02 369.95 201.28 367.60 C 201.87 361.72 201.55 355.80 202.00 349.91 C 202.49 343.65 203.51 337.44 203.95 331.17 L 204.06 330.56 C 206.81 315.77 210.15 301.02 215.93 287.08 C 221.63 274.10 228.28 261.38 237.43 250.47 C 241.23 245.33 246.09 241.15 250.49 236.55 C 260.75 226.39 273.59 219.32 286.74 213.61 C 321.03 199.08 358.67 196.13 395.38 193.23 C 400.88 192.61 406.43 192.97 411.95 192.71 C 431.93 191.16 451.99 192.04 472.01 191.85 C 479.06 191.54 486.03 192.86 493.08 192.85 C 536.02 195.76 579.24 204.51 617.85 224.12 C 635.60 232.96 651.23 246.02 663.07 261.92 C 676.47 279.12 685.21 299.35 692.54 319.73 C 701.42 345.39 708.21 371.77 712.89 398.51 L 712.92 398.69 C 716.87 426.25 719.68 454.21 717.24 482.04 C 716.96 492.19 715.14 502.20 713.93 512.26 L 713.90 512.47 C 710.84 528.40 707.17 544.25 701.80 559.57 C 695.11 578.18 686.62 596.21 676.06 612.94 C 660.47 637.86 637.03 657.31 610.63 669.92 C 598.58 675.32 586.16 680.22 573.06 682.33 C 563.23 684.52 553.23 685.76 543.40 687.96 L 543.02 687.99 C 541.32 687.94 539.64 688.20 538.04 688.75 L 537.73 688.82 C 493.76 695.80 449.45 700.99 404.99 703.18 C 397.64 702.98 390.37 704.33 383.03 704.14 C 359.00 704.04 334.96 704.30 310.93 704.00 C 304.93 702.83 298.78 703.48 292.74 702.60 C 252.48 699.62 212.09 691.83 175.23 674.91 C 162.44 668.87 149.93 662.03 138.98 652.99 C 132.93 648.48 128.01 642.72 122.58 637.52 C 115.76 631.10 110.42 623.35 104.99 615.78 C 96.91 604.30 90.84 591.59 84.77 578.98 C 62.28 527.03 54.85 470.08 51.85 414.00 C 51.82 407.01 51.69 400.02 51.04 393.06 C 50.82 383.36 50.85 373.65 50.98 363.94 C 51.38 358.29 51.92 352.64 51.83 346.96 C 52.90 327.47 55.29 308.08 58.07 288.77 L 58.11 288.54 C 64.05 254.90 72.53 221.56 85.74 190.00 C 91.59 177.83 100.44 167.44 109.49 157.55 C 123.94 143.40 140.40 130.94 159.03 122.87 C 202.43 105.09 248.58 95.49 294.55 87.06 L 295.15 86.96 C 298.97 86.57 302.75 85.81 306.53 85.12 L 306.74 85.09 C 383.08 73.20 460.12 66.85 537.01 59.68 M 414.99 472.22 C 412.51 480.88 408.87 489.28 407.09 498.12 L 406.19 498.28 L 405.76 499.26 L 406.26 500.04 C 404.62 504.21 403.74 508.63 402.37 512.90 C 401.46 515.61 401.27 518.48 401.62 521.31 C 404.62 522.10 407.73 521.66 410.55 520.43 C 436.67 509.22 462.27 496.61 489.19 487.38 C 492.57 485.83 492.84 479.72 488.97 478.62 C 481.78 476.47 474.33 475.38 467.01 473.84 C 464.91 473.45 462.81 472.80 460.67 473.09 C 460.95 471.33 457.88 470.98 457.15 472.32 C 451.53 470.59 445.60 469.98 439.90 468.53 C 433.64 467.36 427.41 465.09 420.97 465.75 C 417.68 466.15 415.69 469.23 414.99 472.22 Z" />
<path fill="#231f20" opacity="1.00" d=" M 429.21 309.85 C 431.60 308.62 434.27 308.71 436.71 309.77 C 436.12 316.32 433.71 322.49 431.93 328.77 C 429.62 336.95 426.72 344.94 424.17 353.04 C 423.10 356.40 422.56 360.38 419.39 362.51 C 416.36 364.75 412.42 363.42 409.06 362.96 C 397.31 360.51 385.61 357.74 373.74 355.92 L 373.55 355.89 C 369.03 354.91 364.49 354.05 359.96 353.13 C 355.62 352.13 350.97 351.68 347.29 348.91 C 347.65 346.94 347.62 344.52 349.67 343.46 C 353.25 341.41 357.37 340.67 361.18 339.16 C 384.23 330.29 406.51 319.56 429.21 309.85 Z" />
</g>
</svg>
