<?xml version="1.0" encoding="UTF-8" ?>
<!DOCTYPE svg PUBLIC "-//W3C//DTD SVG 1.1//EN" "http://www.w3.org/Graphics/SVG/1.1/DTD/svg11.dtd">
<svg width="1024pt" height="1024pt" viewBox="0 0 1024 1024" version="1.1" xmlns="http://www.w3.org/2000/svg">
<g id="#252525ff">
<path fill="#252525" opacity="1.00" d=" M 509.74 209.49 C 517.09 190.59 523.98 171.50 531.53 152.69 C 547.51 155.05 563.57 156.84 579.55 159.17 C 581.49 179.27 583.63 199.35 585.64 219.44 C 609.18 229.25 632.77 238.93 656.30 248.75 C 672.02 236.02 687.69 223.23 703.34 210.42 C 716.25 220.21 729.05 230.13 741.92 239.98 C 733.70 258.52 725.17 276.93 717.11 295.54 C 732.87 315.59 748.06 336.10 763.87 356.11 C 783.69 352.65 803.61 349.76 823.43 346.31 C 829.86 361.18 835.83 376.25 842.15 391.17 C 825.84 403.18 809.28 414.85 792.94 426.82 C 796.33 452.09 799.56 477.39 802.97 502.66 C 821.87 509.82 840.74 517.04 859.64 524.18 C 857.57 540.24 855.43 556.29 853.32 572.35 C 833.24 574.39 813.17 576.52 793.08 578.45 C 783.10 601.95 773.51 625.63 763.67 649.19 C 776.37 665.00 789.42 680.53 801.98 696.45 C 791.96 709.10 782.32 722.05 772.40 734.79 C 753.96 726.50 735.52 718.21 717.06 709.95 C 696.82 725.53 676.48 740.97 656.32 756.64 C 659.60 776.60 662.94 796.55 665.94 816.55 C 650.96 822.57 636.10 828.89 621.16 835.01 C 609.37 818.63 597.47 802.32 585.77 785.88 C 560.43 789.02 535.13 792.52 509.80 795.80 C 502.56 814.69 495.42 833.61 488.20 852.52 C 472.15 850.41 456.09 848.31 440.04 846.17 C 438.02 826.06 435.93 805.96 433.91 785.85 C 410.35 776.03 386.76 766.29 363.17 756.54 C 347.49 769.31 331.83 782.10 316.14 794.86 C 303.31 784.99 290.43 775.17 277.62 765.27 C 285.91 746.84 294.19 728.39 302.47 709.95 C 286.96 689.70 271.41 669.49 255.91 649.24 C 235.93 652.41 215.96 655.69 195.98 658.90 C 189.78 643.95 183.58 628.99 177.40 614.03 C 193.78 602.28 210.00 590.32 226.49 578.72 C 223.43 553.32 219.90 527.97 216.57 502.60 C 197.66 495.46 178.77 488.25 159.88 481.06 C 162.01 465.01 164.11 448.97 166.23 432.92 C 186.37 430.82 206.52 428.86 226.65 426.72 C 236.33 403.13 246.16 379.61 255.88 356.05 C 243.10 340.37 230.32 324.70 217.55 309.02 C 227.40 296.17 237.25 283.33 247.11 270.50 C 265.54 278.76 283.99 287.00 302.39 295.34 C 322.71 279.90 342.88 264.26 363.17 248.79 C 360.01 228.80 356.71 208.83 353.51 188.85 C 368.45 182.63 383.42 176.47 398.36 170.25 C 410.24 186.63 422.03 203.07 433.90 219.45 C 459.18 216.15 484.46 212.78 509.74 209.49 M 503.11 284.15 C 488.75 286.06 474.39 287.94 460.03 289.83 C 456.89 290.27 453.63 290.36 450.70 291.68 C 436.10 297.79 421.47 303.80 406.85 309.87 C 403.87 311.15 400.66 312.08 398.11 314.17 C 383.68 325.41 368.98 336.31 354.67 347.69 C 348.25 355.66 342.18 363.93 335.89 372.01 C 330.52 379.24 324.67 386.14 319.61 393.57 C 312.36 411.00 304.97 428.40 298.01 445.94 C 295.42 463.22 293.44 480.61 291.02 497.92 C 290.70 500.20 290.33 502.52 290.69 504.83 C 293.00 522.16 295.28 539.51 297.54 556.85 C 297.86 560.20 299.51 563.19 300.73 566.26 C 306.78 580.90 312.88 595.51 318.89 610.15 C 319.44 611.52 320.18 612.82 321.08 614.00 C 331.95 628.12 342.80 642.26 353.63 656.42 C 355.26 658.50 357.54 659.92 359.60 661.54 C 372.57 671.49 385.56 681.43 398.52 691.41 C 401.99 693.93 406.26 694.95 410.11 696.75 C 424.46 702.60 438.69 708.77 453.10 714.43 C 472.02 717.05 490.98 719.66 509.95 721.87 C 527.31 719.84 544.62 717.30 561.97 715.14 C 564.23 714.86 566.55 714.61 568.66 713.67 C 585.12 706.78 601.63 700.01 618.10 693.15 C 622.35 690.95 625.78 687.48 629.69 684.75 C 641.34 675.71 653.18 666.91 664.71 657.74 C 676.11 643.44 686.99 628.71 698.25 614.30 C 700.32 611.75 701.24 608.54 702.53 605.58 C 708.51 591.20 714.41 576.79 720.43 562.43 C 722.53 557.88 722.29 552.75 723.17 547.91 C 725.02 532.61 727.51 517.35 728.98 502.02 C 726.62 483.35 724.21 464.66 721.58 446.02 C 714.52 428.35 707.16 410.77 699.76 393.24 C 689.21 378.86 678.04 364.90 667.30 350.65 C 666.16 349.14 664.99 347.63 663.51 346.46 C 650.48 336.50 637.48 326.50 624.47 316.52 C 622.38 314.95 620.43 313.13 618.02 312.08 C 601.47 305.22 584.91 298.39 568.38 291.50 C 565.73 290.36 562.81 290.30 560.00 289.89 C 543.97 287.79 527.94 285.69 511.92 283.55 C 508.97 283.12 506.02 283.79 503.11 284.15 Z" />
<path fill="#252525" opacity="1.00" d=" M 420.70 337.67 C 459.58 316.81 505.97 310.48 549.02 320.15 C 571.23 325.12 592.67 333.98 611.55 346.73 C 586.71 363.87 562.16 381.42 537.31 398.54 C 501.58 388.25 460.99 398.48 434.22 424.25 C 407.70 448.98 395.26 487.60 402.38 523.16 C 450.59 489.45 498.77 455.67 546.97 421.94 C 557.29 415.01 567.04 407.32 577.31 400.32 C 595.51 387.58 613.70 374.83 631.92 362.10 C 658.38 385.34 678.15 416.13 688.02 449.96 C 699.88 489.85 697.80 533.68 682.23 572.27 C 668.89 605.78 645.56 635.23 615.99 655.88 C 583.55 678.75 543.66 690.80 503.98 689.74 C 465.59 688.86 427.58 675.77 396.87 652.73 C 420.56 636.13 444.21 619.48 467.96 602.99 C 489.47 611.76 513.82 613.30 536.25 607.31 C 564.42 599.99 589.18 580.71 603.18 555.20 C 617.18 530.20 620.53 499.56 612.32 472.10 C 534.11 526.82 455.94 581.61 377.77 636.39 C 350.01 609.42 331.13 573.54 324.44 535.43 C 317.49 496.74 323.21 455.90 340.57 420.63 C 357.65 385.45 386.14 355.97 420.70 337.67 Z" />
</g>
</svg>
