<?xml version="1.0" encoding="UTF-8" ?>
<!DOCTYPE svg PUBLIC "-//W3C//DTD SVG 1.1//EN" "http://www.w3.org/Graphics/SVG/1.1/DTD/svg11.dtd">
<svg width="1024pt" height="1024pt" viewBox="0 0 1024 1024" version="1.1" xmlns="http://www.w3.org/2000/svg">
<g id="#545454fe">
<path fill="#545454" opacity="1.00" d=" M 574.87 123.09 C 595.54 119.03 616.21 114.97 636.88 110.89 C 646.93 120.93 656.98 130.98 667.03 141.03 C 665.14 155.43 663.25 169.83 661.36 184.22 C 678.80 198.08 696.25 211.92 713.70 225.77 C 718.79 220.89 723.86 216.00 728.95 211.11 C 739.66 210.94 750.37 210.75 761.08 210.65 C 762.91 210.68 764.70 210.30 766.44 209.73 C 765.40 222.32 765.88 234.99 765.49 247.61 C 760.60 252.71 755.70 257.79 750.82 262.88 C 764.69 280.33 778.49 297.85 792.43 315.25 C 806.78 313.29 821.16 311.48 835.51 309.55 C 845.60 319.57 855.63 329.65 865.69 339.70 C 861.66 360.17 857.61 380.64 853.62 401.12 C 853.00 404.82 850.89 408.00 849.23 411.29 C 842.83 423.53 836.45 435.77 830.09 448.03 C 828.59 450.80 827.40 453.84 825.14 456.10 C 813.45 467.76 801.76 479.43 790.12 491.13 C 788.94 492.31 787.59 493.31 786.13 494.08 C 771.18 501.84 756.25 509.61 741.33 517.41 C 735.92 520.32 730.03 522.18 724.37 524.50 C 708.36 530.77 692.35 537.04 676.33 543.29 C 673.14 544.51 670.52 546.77 667.78 548.75 C 654.05 558.80 640.28 568.80 626.54 578.85 C 612.16 573.15 597.80 567.40 583.41 561.71 C 584.82 547.78 586.20 533.86 587.64 519.94 C 615.69 492.87 643.67 465.73 671.73 438.68 C 673.16 437.37 674.17 435.71 674.95 433.94 C 678.83 425.30 682.82 416.71 686.76 408.09 C 676.00 391.80 665.26 375.48 654.50 359.19 C 560.75 453.00 466.89 546.69 373.22 640.56 C 372.08 649.74 369.13 658.57 367.27 667.62 C 355.32 674.54 343.33 681.37 331.37 688.26 C 328.04 690.22 324.41 691.82 321.65 694.62 C 300.99 715.32 280.31 736.01 259.60 756.66 C 258.23 758.00 257.20 759.64 256.42 761.38 C 251.50 772.08 246.46 782.71 241.52 793.39 C 230.44 795.99 219.36 798.57 208.26 801.10 C 206.45 801.49 204.60 802.03 203.36 803.50 C 185.60 821.31 167.79 839.08 150.01 856.88 C 139.76 856.79 129.52 856.37 119.27 856.55 C 119.34 846.29 119.02 836.04 118.89 825.78 C 134.19 810.46 149.51 795.17 164.81 779.85 C 167.79 776.44 171.86 773.81 174.03 769.82 C 176.96 758.02 179.54 746.12 182.36 734.28 C 193.02 729.31 203.66 724.29 214.35 719.37 C 216.13 718.57 217.81 717.55 219.16 716.13 C 239.96 695.25 260.83 674.44 281.66 653.60 C 284.01 651.13 285.41 647.97 287.14 645.07 C 294.13 632.88 301.11 620.68 308.14 608.51 C 315.80 606.72 323.44 604.86 331.09 603.03 C 332.71 602.35 334.30 602.88 335.72 603.77 C 429.60 509.86 523.51 415.99 617.39 322.08 C 601.08 311.33 584.79 300.55 568.46 289.83 C 559.86 293.78 551.26 297.75 542.63 301.65 C 540.86 302.42 539.18 303.42 537.88 304.87 C 510.83 332.93 483.70 360.91 456.64 388.95 C 442.72 390.38 428.80 391.76 414.89 393.18 C 409.17 378.80 403.45 364.43 397.74 350.05 C 407.76 336.32 417.76 322.58 427.79 308.86 C 429.77 306.09 432.07 303.48 433.30 300.26 C 440.10 282.81 446.94 265.37 453.76 247.92 C 458.00 235.87 464.83 225.00 470.47 213.59 C 474.47 205.93 478.46 198.25 482.44 190.58 C 483.95 187.53 486.64 185.36 488.98 182.98 C 499.31 172.65 509.66 162.34 519.96 151.97 C 521.30 150.58 522.86 149.41 524.59 148.54 C 538.41 141.40 552.19 134.19 565.98 127.00 C 568.86 125.54 571.64 123.70 574.87 123.09 M 618.31 118.36 C 605.66 120.88 592.99 123.29 580.36 125.88 C 588.37 133.97 596.38 142.08 604.55 150.02 C 610.22 148.09 616.16 147.27 622.00 146.08 C 634.44 143.59 646.90 141.22 659.34 138.70 C 651.29 130.51 643.14 122.42 635.00 114.32 C 629.69 116.61 623.90 117.16 618.31 118.36 M 528.39 150.84 C 536.59 159.17 544.92 167.36 553.14 175.67 C 567.27 167.47 582.07 160.47 596.46 152.73 C 588.31 144.43 580.01 136.26 571.81 128.00 C 557.48 135.89 542.82 143.16 528.39 150.84 M 608.97 156.28 C 618.73 171.53 628.70 186.63 638.43 201.89 C 642.43 193.48 651.46 189.33 657.37 182.49 C 658.14 181.16 658.14 179.53 658.45 178.05 C 659.34 170.65 660.34 163.27 661.26 155.88 C 661.69 152.11 663.36 148.65 664.98 145.27 C 646.30 148.92 627.64 152.60 608.97 156.28 M 488.96 188.39 C 497.29 196.62 505.50 204.97 513.85 213.18 C 524.78 202.04 535.92 191.11 546.90 180.01 C 538.62 171.67 530.29 163.36 521.96 155.06 C 511.21 166.41 499.84 177.15 488.96 188.39 M 558.27 181.12 C 573.44 198.21 588.67 215.24 603.91 232.27 C 613.25 223.39 622.51 214.41 631.84 205.51 C 622.96 191.64 613.97 177.83 604.97 164.03 C 603.81 162.18 603.07 160.12 602.33 158.09 C 587.69 165.85 572.92 173.38 558.27 181.12 M 518.65 218.95 C 535.49 240.19 551.61 262.01 568.33 283.35 C 578.68 268.09 588.95 252.76 599.33 237.52 C 595.09 234.14 591.72 229.89 588.13 225.87 C 576.08 212.45 564.15 198.91 552.06 185.53 C 540.88 196.63 529.74 207.76 518.65 218.95 M 642.23 206.17 C 654.76 218.51 667.28 230.85 679.91 243.08 C 681.95 244.91 683.25 247.35 684.43 249.79 C 692.23 241.82 700.21 234.02 708.04 226.08 C 694.09 214.97 680.12 203.88 666.12 192.83 C 664.60 191.55 663.44 189.92 662.27 188.35 C 655.66 194.36 648.88 200.19 642.23 206.17 M 484.47 194.32 C 477.36 209.13 469.35 223.50 461.91 238.15 C 470.06 246.48 478.46 254.57 486.55 262.96 C 493.79 248.21 501.73 233.81 509.14 219.15 C 500.96 210.83 492.55 202.73 484.47 194.32 M 609.06 237.69 C 618.88 248.28 629.09 258.51 639.04 268.98 C 643.29 273.49 647.91 277.68 651.60 282.69 C 660.98 272.98 670.69 263.58 680.17 253.95 C 670.43 244.32 660.62 234.77 650.86 225.17 C 646.22 220.45 641.15 216.15 637.01 210.96 C 627.66 219.83 618.43 228.83 609.06 237.69 M 719.17 225.74 C 723.75 230.19 728.51 234.46 733.01 239.01 C 741.35 230.84 749.71 222.68 757.98 214.43 C 748.69 214.58 739.41 214.59 730.13 214.90 C 726.61 218.64 722.85 222.15 719.17 225.74 M 737.47 243.51 C 742.10 247.98 746.37 252.82 750.84 257.45 C 754.48 253.79 757.83 249.84 761.76 246.49 C 761.89 237.17 762.06 227.85 762.17 218.54 C 753.91 226.83 745.83 235.31 737.47 243.51 M 491.20 269.96 C 494.71 270.83 498.34 271.60 501.42 273.62 C 514.27 282.02 527.11 290.45 540.04 298.73 C 547.58 295.30 555.12 291.88 562.62 288.35 C 546.57 267.38 530.49 246.44 514.43 225.49 C 506.55 240.24 498.92 255.12 491.20 269.96 M 713.44 230.64 C 706.58 239.00 698.30 246.06 690.88 253.93 C 695.51 258.63 700.19 263.27 704.85 267.93 C 711.74 259.35 720.24 252.24 727.75 244.22 C 723.00 239.67 718.18 235.20 713.44 230.64 M 604.20 243.69 C 593.92 258.79 583.77 273.98 573.49 289.08 C 588.33 297.85 602.33 308.00 616.90 317.22 C 626.82 307.38 636.65 297.46 646.56 287.61 C 632.47 272.94 618.38 258.26 604.20 243.69 M 458.67 245.67 C 452.18 262.23 445.68 278.78 439.25 295.37 C 438.43 297.35 437.29 299.18 436.15 300.99 C 444.46 309.31 452.76 317.65 461.12 325.92 C 467.62 309.43 474.09 292.92 480.48 276.37 C 481.31 274.32 482.47 272.43 483.64 270.56 C 475.31 262.27 467.06 253.90 458.67 245.67 M 732.35 248.80 C 725.93 255.24 719.46 261.63 713.09 268.12 C 711.74 269.55 710.10 270.67 708.41 271.65 C 713.29 276.22 717.89 281.07 722.66 285.75 C 728.99 279.39 735.38 273.08 741.67 266.68 C 742.98 265.31 744.56 264.27 746.21 263.34 C 741.49 258.59 736.99 253.63 732.35 248.80 M 684.72 258.34 C 683.55 260.55 682.25 262.72 680.42 264.44 C 672.60 272.08 664.94 279.89 657.17 287.58 C 661.85 292.48 666.75 297.17 671.48 302.03 C 672.76 299.88 674.13 297.75 675.94 295.99 C 683.72 288.34 691.42 280.60 699.11 272.87 C 694.36 267.98 689.43 263.26 684.72 258.34 M 726.68 292.28 C 728.71 293.14 730.91 293.90 732.42 295.63 C 745.06 308.57 757.74 321.48 770.41 334.39 C 776.40 327.65 782.33 320.86 788.35 314.15 C 786.82 313.25 785.20 312.44 784.16 310.96 C 772.99 296.77 761.71 282.66 750.50 268.50 C 742.55 276.41 734.65 284.38 726.68 292.28 M 488.64 274.16 C 487.95 278.24 486.49 282.11 484.87 285.89 C 479.04 300.74 473.24 315.60 467.42 330.46 C 477.31 334.27 487.27 337.91 497.19 341.64 C 509.35 328.95 521.65 316.39 533.81 303.70 C 518.80 293.78 503.58 284.18 488.64 274.16 M 683.57 297.59 C 680.74 300.32 678.27 303.76 674.29 304.86 C 679.23 309.66 684.05 314.60 688.95 319.45 C 695.70 312.70 702.46 305.95 709.21 299.19 C 711.98 296.48 714.44 293.14 718.35 292.00 C 713.43 287.19 708.61 282.28 703.73 277.43 C 697.01 284.15 690.28 290.86 683.57 297.59 M 650.95 292.05 C 649.83 294.14 648.68 296.26 646.95 297.91 C 638.81 305.90 630.77 313.98 622.74 322.07 C 627.48 326.99 632.43 331.69 637.14 336.64 C 638.23 334.63 639.32 332.57 640.98 330.96 C 649.16 322.86 657.35 314.74 665.42 306.51 C 660.59 301.69 655.76 296.88 650.95 292.05 M 693.68 325.21 C 695.15 326.06 696.65 326.94 697.90 328.14 C 711.49 341.33 725.16 354.43 738.78 367.59 C 747.83 358.25 756.69 348.75 765.84 339.52 C 764.38 338.54 762.96 337.51 761.72 336.27 C 748.73 322.93 735.65 309.68 722.62 296.37 C 712.96 305.96 703.43 315.69 693.68 325.21 M 406.45 344.50 C 405.02 346.42 403.35 348.14 401.66 349.83 C 405.87 360.45 410.17 371.03 414.28 381.69 C 414.82 382.88 415.24 384.25 416.35 385.06 C 426.53 372.64 436.25 359.83 446.27 347.27 C 450.10 342.56 453.53 337.50 457.87 333.22 C 449.42 325.03 441.23 316.57 432.83 308.33 C 424.01 320.37 415.20 332.41 406.45 344.50 M 645.08 336.12 C 643.69 337.71 641.70 338.48 639.82 339.28 C 644.76 344.10 649.60 349.03 654.50 353.90 C 661.40 347.01 668.30 340.11 675.19 333.21 C 678.08 330.39 680.64 326.92 684.70 325.71 C 679.74 320.92 674.93 315.97 670.03 311.12 C 661.71 319.45 653.36 327.75 645.08 336.12 M 823.15 314.90 C 813.62 316.42 803.97 317.19 794.48 318.86 C 789.17 323.80 784.88 329.80 779.81 335.00 C 778.33 336.38 776.42 337.16 774.68 338.14 C 789.93 347.91 805.08 357.83 820.30 367.65 C 823.98 348.94 827.68 330.23 831.35 311.51 C 828.64 312.71 826.07 314.31 823.15 314.90 M 837.88 317.17 C 834.60 333.79 831.31 350.40 828.08 367.02 C 827.82 368.74 827.03 370.30 826.17 371.80 C 834.38 379.95 842.53 388.16 850.73 396.33 C 854.03 379.58 857.35 362.85 860.60 346.09 C 860.88 344.51 861.62 343.08 862.39 341.70 C 854.24 333.51 846.06 325.34 837.88 317.17 M 616.50 326.42 C 615.34 328.55 614.16 330.72 612.41 332.43 C 603.93 340.81 595.51 349.25 587.10 357.70 C 591.90 362.56 596.78 367.36 601.58 372.22 C 602.72 370.18 603.86 368.09 605.53 366.42 C 614.06 357.98 622.53 349.50 630.98 341.00 C 626.19 336.11 621.26 331.34 616.50 326.42 M 659.31 359.69 C 666.60 370.75 673.91 381.82 681.20 392.89 C 683.40 396.25 685.90 399.46 687.36 403.24 C 702.49 392.86 717.76 382.68 732.95 372.38 C 718.31 358.23 703.64 344.12 688.99 329.99 C 679.10 339.90 669.19 349.78 659.31 359.69 M 462.64 336.72 C 461.08 341.65 457.27 345.25 454.23 349.26 C 443.96 362.36 433.60 375.38 423.38 388.51 C 434.33 387.48 445.29 386.37 456.23 385.21 C 457.39 383.39 458.57 381.58 460.03 379.99 C 470.53 369.20 481.01 358.39 491.43 347.51 C 481.84 343.89 472.24 340.31 462.64 336.72 M 744.24 372.67 C 761.34 387.87 778.38 403.14 795.47 418.36 C 803.19 403.62 810.81 388.82 818.57 374.10 C 814.80 373.65 811.91 371.08 808.82 369.15 C 796.26 360.99 783.69 352.85 771.11 344.71 C 762.13 354.01 753.25 363.40 744.24 372.67 M 635.58 345.57 C 626.72 354.43 617.87 363.29 609.02 372.15 C 607.71 373.55 605.81 374.07 604.11 374.81 C 609.10 379.65 613.95 384.62 618.89 389.51 C 627.67 380.74 636.44 371.97 645.20 363.18 C 646.57 361.69 648.49 361.01 650.32 360.26 C 645.36 355.41 640.50 350.46 635.58 345.57 M 580.85 362.05 C 579.76 364.15 578.64 366.28 576.91 367.94 C 568.51 376.21 560.18 384.56 551.88 392.94 C 556.66 397.78 561.52 402.56 566.31 407.41 C 568.67 402.35 573.24 398.97 577.00 395.02 C 583.08 388.83 589.37 382.84 595.33 376.53 C 590.49 371.71 585.65 366.90 580.85 362.05 M 693.15 408.29 C 714.61 424.94 736.47 441.09 757.67 458.07 C 768.72 446.79 779.99 435.73 791.11 424.52 C 776.37 411.35 761.63 398.20 746.88 385.04 C 744.18 382.56 740.97 380.44 739.36 377.02 C 724.01 387.53 708.54 397.85 693.15 408.29 M 800.93 423.48 C 809.24 431.69 817.46 440.00 825.75 448.24 C 831.29 437.61 836.83 426.97 842.38 416.33 C 844.40 412.48 846.19 408.49 848.76 404.96 C 840.47 396.65 832.17 388.36 823.87 380.07 C 816.14 394.49 809.06 409.28 800.93 423.48 M 574.07 407.12 C 572.71 408.64 570.74 409.27 568.94 410.05 C 573.87 414.92 578.74 419.86 583.66 424.75 C 592.33 416.08 601.01 407.41 609.66 398.72 C 611.00 397.26 612.90 396.61 614.69 395.86 C 609.74 391.01 604.88 386.07 599.97 381.19 C 591.33 389.83 582.67 398.45 574.07 407.12 M 545.61 397.24 C 543.66 402.06 539.43 405.23 535.92 408.85 C 529.50 415.30 523.03 421.69 516.64 428.16 C 521.43 433.09 526.36 437.87 531.19 442.76 C 532.20 440.70 533.25 438.60 534.94 437.00 C 543.39 428.68 551.75 420.26 560.12 411.87 C 555.35 406.92 550.36 402.20 545.61 397.24 M 688.20 413.93 C 684.72 421.46 681.30 429.02 677.81 436.55 C 686.29 449.62 694.79 462.69 703.31 475.73 C 705.25 478.62 705.70 482.14 706.60 485.42 C 721.46 477.69 736.32 469.95 751.17 462.20 C 730.18 446.12 709.19 430.01 688.20 413.93 M 543.54 437.61 C 540.54 440.51 537.93 444.15 533.70 445.32 C 538.65 450.15 543.50 455.10 548.40 459.99 C 557.00 451.41 565.60 442.83 574.16 434.21 C 575.55 432.62 577.54 431.87 579.46 431.11 C 574.50 426.26 569.65 421.31 564.73 416.42 C 557.67 423.48 550.60 430.55 543.54 437.61 M 763.16 462.67 C 771.63 470.90 779.88 479.35 788.26 487.66 C 799.43 476.70 810.20 465.33 821.61 454.63 C 813.20 446.37 804.93 437.97 796.58 429.66 C 785.37 440.59 774.68 452.08 763.16 462.67 M 510.43 432.55 C 509.28 434.61 508.13 436.72 506.44 438.40 C 498.04 446.68 489.73 455.05 481.38 463.39 C 486.18 468.30 491.11 473.09 495.94 477.97 C 497.03 475.80 498.19 473.62 499.99 471.94 C 508.36 463.72 516.62 455.39 524.90 447.08 C 520.10 442.21 515.19 437.45 510.43 432.55 M 634.93 479.41 C 638.67 489.32 642.35 499.26 646.08 509.18 C 663.10 502.51 680.15 495.89 697.16 489.16 C 698.85 488.45 700.69 488.28 702.52 488.12 C 692.50 473.09 682.79 457.85 672.89 442.74 C 660.22 454.95 647.61 467.22 634.93 479.41 M 503.54 477.64 C 502.20 479.15 500.25 479.78 498.47 480.56 C 503.44 485.38 508.25 490.35 513.16 495.23 C 520.34 488.07 527.51 480.90 534.67 473.73 C 537.55 470.91 540.12 467.43 544.22 466.34 C 539.26 461.50 534.41 456.54 529.51 451.65 C 520.84 460.31 512.17 468.96 503.54 477.64 M 470.45 474.40 C 462.29 482.43 454.21 490.55 446.13 498.67 C 450.95 503.51 455.82 508.29 460.63 513.14 C 461.75 511.14 462.86 509.10 464.50 507.46 C 472.92 499.10 481.33 490.73 489.67 482.29 C 484.83 477.63 480.28 472.65 475.32 468.11 C 473.73 470.23 472.36 472.54 470.45 474.40 M 724.57 484.51 C 720.88 486.40 717.31 488.62 713.30 489.76 C 721.84 497.91 730.01 506.43 738.42 514.71 C 749.63 508.84 760.86 503.02 772.07 497.17 C 775.43 495.36 778.80 493.51 782.43 492.27 C 773.95 484.12 765.77 475.66 757.40 467.40 C 746.46 473.11 735.51 478.81 724.57 484.51 M 593.75 519.26 C 593.16 519.35 592.00 519.51 591.41 519.59 C 590.28 530.83 589.14 542.06 588.02 553.29 C 603.73 540.94 619.43 528.57 635.13 516.19 C 636.49 515.01 638.30 514.68 639.99 514.21 C 636.30 504.52 632.72 494.79 629.07 485.09 C 617.30 496.49 605.50 507.85 593.75 519.26 M 494.27 486.89 C 485.53 495.61 476.81 504.34 468.09 513.08 C 466.78 514.49 464.90 515.02 463.20 515.76 C 468.17 520.60 473.01 525.58 477.93 530.48 C 486.52 521.87 495.14 513.29 503.71 504.66 C 505.10 503.09 507.09 502.35 508.98 501.58 C 504.01 496.75 499.18 491.78 494.27 486.89 M 705.88 492.75 C 703.09 495.50 699.20 496.36 695.70 497.81 C 680.67 503.69 665.63 509.56 650.60 515.46 C 658.97 523.85 667.37 532.21 675.73 540.61 C 677.00 539.53 678.31 538.43 679.91 537.86 C 696.95 531.24 713.96 524.56 730.99 517.90 C 722.63 509.50 714.22 501.16 705.88 492.75 M 439.87 503.02 C 438.78 505.11 437.68 507.25 435.95 508.90 C 427.55 517.17 419.22 525.53 410.91 533.90 C 415.68 538.78 420.61 543.50 425.37 548.39 C 426.52 546.29 427.73 544.18 429.46 542.49 C 437.82 534.20 446.17 525.91 454.43 517.51 C 449.58 512.67 444.72 507.86 439.87 503.02 M 640.00 521.92 C 623.59 534.80 607.21 547.71 590.83 560.63 C 602.92 565.44 615.01 570.25 627.10 575.05 C 628.05 573.69 629.03 572.32 630.41 571.36 C 643.06 562.19 655.67 552.95 668.30 543.76 C 659.94 535.35 651.50 527.02 643.18 518.57 C 642.18 519.74 641.19 520.94 640.00 521.92 M 433.04 548.14 C 431.71 549.63 429.77 550.23 427.99 550.98 C 432.92 555.87 437.78 560.81 442.69 565.72 C 451.36 557.05 460.03 548.38 468.68 539.70 C 470.03 538.23 471.94 537.58 473.73 536.82 C 468.79 531.96 463.94 527.01 459.04 522.12 C 450.37 530.79 441.68 539.45 433.04 548.14 M 404.64 538.20 C 402.68 543.06 398.40 546.25 394.86 549.90 C 388.48 556.33 382.03 562.68 375.68 569.13 C 380.45 574.05 385.43 578.76 390.19 583.70 C 391.24 581.67 392.30 579.60 393.96 577.99 C 402.41 569.64 410.80 561.23 419.18 552.81 C 414.39 547.88 409.43 543.13 404.64 538.20 M 398.08 583.12 C 396.68 584.72 394.65 585.42 392.76 586.23 C 397.70 591.10 402.54 596.07 407.46 600.96 C 416.03 592.35 424.65 583.80 433.19 575.17 C 434.59 573.58 436.58 572.84 438.50 572.08 C 433.55 567.22 428.71 562.25 423.80 557.35 C 415.22 565.94 406.61 574.50 398.08 583.12 M 369.48 573.52 C 368.30 575.61 367.12 577.74 365.39 579.45 C 357.02 587.71 348.72 596.04 340.42 604.37 C 345.22 609.26 350.16 614.01 354.96 618.90 C 356.07 616.78 357.20 614.64 358.95 612.98 C 367.35 604.72 375.65 596.36 383.97 588.02 C 379.17 583.16 374.25 578.41 369.48 573.52 M 388.57 592.58 C 379.89 601.26 371.20 609.93 362.55 618.63 C 361.22 620.10 359.29 620.72 357.53 621.51 C 362.49 626.33 367.30 631.31 372.20 636.20 C 380.88 627.54 389.55 618.86 398.20 610.18 C 399.56 608.71 401.45 608.04 403.25 607.30 C 398.31 602.44 393.47 597.48 388.57 592.58 M 315.56 610.63 C 322.94 618.21 330.57 625.54 337.91 633.15 C 341.46 629.63 344.99 626.09 348.53 622.56 C 343.57 617.08 337.56 612.54 333.44 606.34 C 327.47 607.74 321.51 609.17 315.56 610.63 M 299.73 630.63 C 295.78 637.68 291.54 644.56 287.79 651.71 C 293.10 656.95 298.31 662.28 303.65 667.49 C 313.24 657.72 323.05 648.15 332.64 638.38 C 324.58 630.22 316.32 622.27 308.42 613.97 C 306.44 619.97 302.73 625.14 299.73 630.63 M 342.43 637.98 C 350.38 645.01 357.53 652.90 365.15 660.29 C 366.65 654.06 368.12 647.83 369.61 641.61 C 369.03 641.51 367.86 641.33 367.27 641.24 C 362.62 636.54 357.93 631.88 353.25 627.20 C 349.65 630.80 346.07 634.41 342.43 637.98 M 337.36 643.09 C 327.63 652.76 318.04 662.56 308.22 672.13 C 313.54 677.43 318.85 682.76 324.17 688.07 C 334.98 681.89 345.78 675.69 356.56 669.46 C 358.25 668.40 360.25 668.15 362.17 667.81 C 353.81 659.66 345.65 651.31 337.36 643.09 M 282.68 657.08 C 281.00 659.27 279.24 661.41 277.26 663.34 C 270.45 670.02 263.77 676.83 256.98 683.53 C 262.08 688.85 267.38 693.98 272.56 699.23 C 280.40 689.72 289.92 681.78 298.22 672.68 C 293.02 667.50 287.78 662.36 282.68 657.08 M 280.75 699.77 C 279.46 701.11 277.86 702.09 276.22 702.95 C 281.62 708.16 286.85 713.54 292.18 718.83 C 299.63 711.37 307.10 703.95 314.51 696.46 C 315.76 695.12 317.34 694.16 318.96 693.33 C 313.53 688.15 308.32 682.74 302.99 677.47 C 295.57 684.90 288.11 692.29 280.75 699.77 M 250.97 688.17 C 248.56 692.84 244.33 696.06 240.76 699.77 C 234.73 705.85 228.61 711.84 222.63 717.97 C 227.82 723.34 233.26 728.48 238.38 733.92 C 239.76 731.83 241.21 729.76 243.01 728.00 C 251.02 720.11 258.95 712.13 266.89 704.16 C 261.63 698.79 256.25 693.52 250.97 688.17 M 250.76 729.70 C 247.94 732.41 245.50 735.78 241.65 737.10 C 247.07 742.42 252.42 747.79 257.75 753.20 C 266.40 744.70 274.91 736.07 283.49 727.51 C 284.67 726.29 286.27 725.66 287.77 724.94 C 282.34 719.63 277.01 714.20 271.62 708.84 C 264.66 715.79 257.71 722.74 250.76 729.70 M 188.84 735.38 C 196.58 743.30 204.52 751.05 212.30 758.94 C 218.89 752.01 225.79 745.37 232.51 738.57 C 227.20 733.14 221.83 727.79 216.42 722.46 C 207.24 726.80 198.04 731.08 188.84 735.38 M 183.65 740.77 C 183.50 750.65 179.71 759.98 178.03 769.64 C 181.93 773.58 185.97 777.38 189.62 781.56 C 195.28 775.66 201.17 769.99 206.89 764.16 C 199.20 756.31 191.29 748.67 183.65 740.77 M 216.74 763.50 C 224.74 771.20 232.46 779.18 240.36 786.99 C 244.70 777.77 248.95 768.51 253.33 759.31 C 247.96 753.95 242.60 748.58 237.23 743.22 C 230.37 749.95 223.77 756.95 216.74 763.50 M 211.60 768.85 C 205.76 774.65 200.01 780.56 194.08 786.28 C 198.56 789.62 202.12 793.96 206.17 797.78 C 213.60 796.07 221.02 794.33 228.44 792.58 C 230.67 791.99 232.98 792.20 235.26 792.38 C 227.27 784.64 219.52 776.66 211.60 768.85 M 161.99 788.03 C 149.43 800.46 137.00 813.03 124.45 825.48 C 123.12 826.58 122.54 828.19 122.70 829.92 C 122.77 836.97 122.93 844.02 123.07 851.07 C 126.30 845.49 130.17 840.30 135.04 836.03 C 150.73 820.39 166.33 804.67 182.06 789.08 C 182.71 788.22 183.79 787.52 183.91 786.40 C 180.24 781.95 175.80 778.21 171.81 774.05 C 168.65 778.78 166.12 784.02 161.99 788.03 M 135.23 845.25 C 132.15 848.37 128.18 850.35 124.55 852.73 C 132.56 852.60 140.77 853.54 148.66 852.72 C 162.07 839.81 175.06 826.42 188.27 813.29 C 192.14 809.36 197.24 807.03 201.75 803.96 C 197.54 799.74 193.33 795.54 189.12 791.33 C 171.16 809.31 153.17 827.25 135.23 845.25 Z" />
</g>
<g id="#252525ff">
<path fill="#252525" opacity="1.00" d=" M 618.31 118.36 C 623.90 117.16 629.69 116.61 635.00 114.32 C 643.14 122.42 651.29 130.51 659.34 138.70 C 646.90 141.22 634.44 143.59 622.00 146.08 C 616.16 147.27 610.22 148.09 604.55 150.02 C 596.38 142.08 588.37 133.97 580.36 125.88 C 592.99 123.29 605.66 120.88 618.31 118.36 Z" />
<path fill="#252525" opacity="1.00" d=" M 528.39 150.84 C 542.82 143.16 557.48 135.89 571.81 128.00 C 580.01 136.26 588.31 144.43 596.46 152.73 C 582.07 160.47 567.27 167.47 553.14 175.67 C 544.92 167.36 536.59 159.17 528.39 150.84 Z" />
<path fill="#252525" opacity="1.00" d=" M 608.97 156.28 C 627.64 152.60 646.30 148.92 664.98 145.27 C 663.36 148.65 661.69 152.11 661.26 155.88 C 660.34 163.27 659.34 170.65 658.45 178.05 C 658.14 179.53 658.14 181.16 657.37 182.49 C 651.46 189.33 642.43 193.48 638.43 201.89 C 628.70 186.63 618.73 171.53 608.97 156.28 Z" />
<path fill="#252525" opacity="1.00" d=" M 488.96 188.39 C 499.84 177.15 511.21 166.41 521.96 155.06 C 530.29 163.36 538.62 171.67 546.90 180.01 C 535.92 191.11 524.78 202.04 513.85 213.18 C 505.50 204.97 497.29 196.62 488.96 188.39 Z" />
<path fill="#252525" opacity="1.00" d=" M 558.27 181.12 C 572.92 173.38 587.69 165.85 602.33 158.09 C 603.07 160.12 603.81 162.18 604.97 164.03 C 613.97 177.83 622.96 191.64 631.84 205.51 C 622.51 214.41 613.25 223.39 603.91 232.27 C 588.67 215.24 573.44 198.21 558.27 181.12 Z" />
<path fill="#252525" opacity="1.00" d=" M 518.65 218.95 C 529.74 207.76 540.88 196.63 552.06 185.53 C 564.15 198.91 576.08 212.45 588.13 225.87 C 591.72 229.89 595.09 234.14 599.33 237.52 C 588.95 252.76 578.68 268.09 568.33 283.35 C 551.61 262.01 535.49 240.19 518.65 218.95 Z" />
<path fill="#252525" opacity="1.00" d=" M 642.23 206.17 C 648.88 200.19 655.66 194.36 662.27 188.35 C 663.44 189.92 664.60 191.55 666.12 192.83 C 680.12 203.88 694.09 214.97 708.04 226.08 C 700.21 234.02 692.23 241.82 684.43 249.79 C 683.25 247.35 681.95 244.91 679.91 243.08 C 667.28 230.85 654.76 218.51 642.23 206.17 Z" />
<path fill="#252525" opacity="1.00" d=" M 484.47 194.32 C 492.55 202.73 500.96 210.83 509.14 219.15 C 501.73 233.81 493.79 248.21 486.55 262.96 C 478.46 254.57 470.06 246.48 461.91 238.15 C 469.35 223.50 477.36 209.13 484.47 194.32 Z" />
<path fill="#252525" opacity="1.00" d=" M 609.06 237.69 C 618.43 228.83 627.66 219.83 637.01 210.96 C 641.15 216.15 646.22 220.45 650.86 225.17 C 660.62 234.77 670.43 244.32 680.17 253.95 C 670.69 263.58 660.98 272.98 651.60 282.69 C 647.91 277.68 643.29 273.49 639.04 268.98 C 629.09 258.51 618.88 248.28 609.06 237.69 Z" />
<path fill="#252525" opacity="1.00" d=" M 719.17 225.74 C 722.85 222.15 726.61 218.64 730.13 214.90 C 739.41 214.59 748.69 214.58 757.98 214.43 C 749.71 222.68 741.35 230.84 733.01 239.01 C 728.51 234.46 723.75 230.19 719.17 225.74 Z" />
<path fill="#252525" opacity="1.00" d=" M 491.20 269.96 C 498.92 255.12 506.55 240.24 514.43 225.49 C 530.49 246.44 546.57 267.38 562.62 288.35 C 555.12 291.88 547.58 295.30 540.04 298.73 C 527.11 290.45 514.27 282.02 501.42 273.62 C 498.34 271.60 494.71 270.83 491.20 269.96 Z" />
<path fill="#252525" opacity="1.00" d=" M 713.44 230.64 C 718.18 235.20 723.00 239.67 727.75 244.22 C 720.24 252.24 711.74 259.35 704.85 267.93 C 700.19 263.27 695.51 258.63 690.88 253.93 C 698.30 246.06 706.58 239.00 713.44 230.64 Z" />
<path fill="#252525" opacity="1.00" d=" M 604.20 243.69 C 618.38 258.26 632.47 272.94 646.56 287.61 C 636.65 297.46 626.82 307.38 616.90 317.22 C 602.33 308.00 588.33 297.85 573.49 289.08 C 583.77 273.98 593.92 258.79 604.20 243.69 Z" />
<path fill="#252525" opacity="1.00" d=" M 458.67 245.67 C 467.06 253.90 475.31 262.27 483.64 270.56 C 482.47 272.43 481.31 274.32 480.48 276.37 C 474.09 292.92 467.62 309.43 461.12 325.92 C 452.76 317.65 444.46 309.31 436.15 300.99 C 437.29 299.18 438.43 297.35 439.25 295.37 C 445.68 278.78 452.18 262.23 458.67 245.67 Z" />
<path fill="#252525" opacity="1.00" d=" M 684.72 258.34 C 689.43 263.26 694.36 267.98 699.11 272.87 C 691.42 280.60 683.72 288.34 675.94 295.99 C 674.13 297.75 672.76 299.88 671.48 302.03 C 666.75 297.17 661.85 292.48 657.17 287.58 C 664.94 279.89 672.60 272.08 680.42 264.44 C 682.25 262.72 683.55 260.55 684.72 258.34 Z" />
<path fill="#252525" opacity="1.00" d=" M 488.64 274.16 C 503.58 284.18 518.80 293.78 533.81 303.70 C 521.65 316.39 509.35 328.95 497.19 341.64 C 487.27 337.91 477.31 334.27 467.42 330.46 C 473.24 315.60 479.04 300.74 484.87 285.89 C 486.49 282.11 487.95 278.24 488.64 274.16 Z" />
<path fill="#252525" opacity="1.00" d=" M 650.95 292.05 C 655.76 296.88 660.59 301.69 665.42 306.51 C 657.35 314.74 649.16 322.86 640.98 330.96 C 639.32 332.57 638.23 334.63 637.14 336.64 C 632.43 331.69 627.48 326.99 622.74 322.07 C 630.77 313.98 638.81 305.90 646.95 297.91 C 648.68 296.26 649.83 294.14 650.95 292.05 Z" />
<path fill="#252525" opacity="1.00" d=" M 406.45 344.50 C 415.20 332.41 424.01 320.37 432.83 308.33 C 441.23 316.57 449.42 325.03 457.87 333.22 C 453.53 337.50 450.10 342.56 446.27 347.27 C 436.25 359.83 426.53 372.64 416.35 385.06 C 415.24 384.25 414.82 382.88 414.28 381.69 C 410.17 371.03 405.87 360.45 401.66 349.83 C 403.35 348.14 405.02 346.42 406.45 344.50 Z" />
<path fill="#252525" opacity="1.00" d=" M 616.50 326.42 C 621.26 331.34 626.19 336.11 630.98 341.00 C 622.53 349.50 614.06 357.98 605.53 366.42 C 603.86 368.09 602.72 370.18 601.58 372.22 C 596.78 367.36 591.90 362.56 587.10 357.70 C 595.51 349.25 603.93 340.81 612.41 332.43 C 614.16 330.72 615.34 328.55 616.50 326.42 Z" />
<path fill="#252525" opacity="1.00" d=" M 462.64 336.72 C 472.24 340.31 481.84 343.89 491.43 347.51 C 481.01 358.39 470.53 369.20 460.03 379.99 C 458.57 381.58 457.39 383.39 456.23 385.21 C 445.29 386.37 434.33 387.48 423.38 388.51 C 433.60 375.38 443.96 362.36 454.23 349.26 C 457.27 345.25 461.08 341.65 462.64 336.72 Z" />
<path fill="#252525" opacity="1.00" d=" M 580.85 362.05 C 585.65 366.90 590.49 371.71 595.33 376.53 C 589.37 382.84 583.08 388.83 577.00 395.02 C 573.24 398.97 568.67 402.35 566.31 407.41 C 561.52 402.56 556.66 397.78 551.88 392.94 C 560.18 384.56 568.51 376.21 576.91 367.94 C 578.64 366.28 579.76 364.15 580.85 362.05 Z" />
<path fill="#252525" opacity="1.00" d=" M 545.61 397.24 C 550.36 402.20 555.35 406.92 560.12 411.87 C 551.75 420.26 543.39 428.68 534.94 437.00 C 533.25 438.60 532.20 440.70 531.19 442.76 C 526.36 437.87 521.43 433.09 516.64 428.16 C 523.03 421.69 529.50 415.30 535.92 408.85 C 539.43 405.23 543.66 402.06 545.61 397.24 Z" />
<path fill="#252525" opacity="1.00" d=" M 510.43 432.55 C 515.19 437.45 520.10 442.21 524.90 447.08 C 516.62 455.39 508.36 463.72 499.99 471.94 C 498.19 473.62 497.03 475.80 495.94 477.97 C 491.11 473.09 486.18 468.30 481.38 463.39 C 489.73 455.05 498.04 446.68 506.44 438.40 C 508.13 436.72 509.28 434.61 510.43 432.55 Z" />
<path fill="#252525" opacity="1.00" d=" M 470.45 474.40 C 472.36 472.54 473.73 470.23 475.32 468.11 C 480.28 472.65 484.83 477.63 489.67 482.29 C 481.33 490.73 472.92 499.10 464.50 507.46 C 462.86 509.10 461.75 511.14 460.63 513.14 C 455.82 508.29 450.95 503.51 446.13 498.67 C 454.21 490.55 462.29 482.43 470.45 474.40 Z" />
<path fill="#252525" opacity="1.00" d=" M 439.87 503.02 C 444.72 507.86 449.58 512.67 454.43 517.51 C 446.17 525.91 437.82 534.20 429.46 542.49 C 427.73 544.18 426.52 546.29 425.37 548.39 C 420.61 543.50 415.68 538.78 410.91 533.90 C 419.22 525.53 427.55 517.17 435.95 508.90 C 437.68 507.25 438.78 505.11 439.87 503.02 Z" />
<path fill="#252525" opacity="1.00" d=" M 404.64 538.20 C 409.43 543.13 414.39 547.88 419.18 552.81 C 410.80 561.23 402.41 569.64 393.96 577.99 C 392.30 579.60 391.24 581.67 390.19 583.70 C 385.43 578.76 380.45 574.05 375.68 569.13 C 382.03 562.68 388.48 556.33 394.86 549.90 C 398.40 546.25 402.68 543.06 404.64 538.20 Z" />
<path fill="#252525" opacity="1.00" d=" M 369.48 573.52 C 374.25 578.41 379.17 583.16 383.97 588.02 C 375.65 596.36 367.35 604.72 358.95 612.98 C 357.20 614.64 356.07 616.78 354.96 618.90 C 350.16 614.01 345.22 609.26 340.42 604.37 C 348.72 596.04 357.02 587.71 365.39 579.45 C 367.12 577.74 368.30 575.61 369.48 573.52 Z" />
<path fill="#252525" opacity="1.00" d=" M 315.56 610.63 C 321.51 609.17 327.47 607.74 333.44 606.34 C 337.56 612.54 343.57 617.08 348.53 622.56 C 344.99 626.09 341.46 629.63 337.91 633.15 C 330.57 625.54 322.94 618.21 315.56 610.63 Z" />
<path fill="#252525" opacity="1.00" d=" M 299.73 630.63 C 302.73 625.14 306.44 619.97 308.42 613.97 C 316.32 622.27 324.58 630.22 332.64 638.38 C 323.05 648.15 313.24 657.72 303.65 667.49 C 298.31 662.28 293.10 656.95 287.79 651.71 C 291.54 644.56 295.78 637.68 299.73 630.63 Z" />
<path fill="#252525" opacity="1.00" d=" M 282.68 657.08 C 287.78 662.36 293.02 667.50 298.22 672.68 C 289.92 681.78 280.40 689.72 272.56 699.23 C 267.38 693.98 262.08 688.85 256.98 683.53 C 263.77 676.83 270.45 670.02 277.26 663.34 C 279.24 661.41 281.00 659.27 282.68 657.08 Z" />
<path fill="#252525" opacity="1.00" d=" M 250.97 688.17 C 256.25 693.52 261.63 698.79 266.89 704.16 C 258.95 712.13 251.02 720.11 243.01 728.00 C 241.21 729.76 239.76 731.83 238.38 733.92 C 233.26 728.48 227.82 723.34 222.63 717.97 C 228.61 711.84 234.73 705.85 240.76 699.77 C 244.33 696.06 248.56 692.84 250.97 688.17 Z" />
<path fill="#252525" opacity="1.00" d=" M 188.84 735.38 C 198.04 731.08 207.24 726.80 216.42 722.46 C 221.83 727.79 227.20 733.14 232.51 738.57 C 225.79 745.37 218.89 752.01 212.30 758.94 C 204.52 751.05 196.58 743.30 188.84 735.38 Z" />
<path fill="#252525" opacity="1.00" d=" M 183.65 740.77 C 191.29 748.67 199.20 756.31 206.89 764.16 C 201.17 769.99 195.28 775.66 189.62 781.56 C 185.97 777.38 181.93 773.58 178.03 769.64 C 179.71 759.98 183.50 750.65 183.65 740.77 Z" />
<path fill="#252525" opacity="1.00" d=" M 161.99 788.03 C 166.12 784.02 168.65 778.78 171.81 774.05 C 175.80 778.21 180.24 781.95 183.91 786.40 C 183.79 787.52 182.71 788.22 182.06 789.08 C 166.33 804.67 150.73 820.39 135.04 836.03 C 130.17 840.30 126.30 845.49 123.07 851.07 C 122.93 844.02 122.77 836.97 122.70 829.92 C 122.54 828.19 123.12 826.58 124.45 825.48 C 137.00 813.03 149.43 800.46 161.99 788.03 Z" />
</g>
</svg>
