<?xml version="1.0" encoding="UTF-8" ?>
<!DOCTYPE svg PUBLIC "-//W3C//DTD SVG 1.1//EN" "http://www.w3.org/Graphics/SVG/1.1/DTD/svg11.dtd">
<svg width="1024pt" height="1024pt" viewBox="0 0 1024 1024" version="1.1" xmlns="http://www.w3.org/2000/svg">
<g id="#252525ff">
<path fill="#252525" opacity="1.00" d=" M 348.42 131.38 C 354.42 125.51 362.68 122.13 371.05 121.79 C 382.18 120.97 394.25 123.59 402.55 131.47 C 410.36 139.04 413.46 150.33 413.01 160.97 C 412.61 170.71 408.46 179.72 404.33 188.38 C 402.84 191.37 401.71 194.52 400.97 197.78 C 401.29 198.36 401.91 199.52 402.22 200.10 C 446.55 200.12 490.88 200.10 535.22 200.11 C 536.12 203.68 537.08 207.29 536.95 211.01 C 537.19 237.39 534.30 263.66 533.76 290.02 C 533.60 297.44 533.46 304.91 535.25 312.17 C 542.18 311.40 548.28 307.75 554.91 305.91 C 565.35 302.77 577.25 302.58 586.97 308.04 C 596.59 313.17 602.80 323.29 604.64 333.86 C 607.35 347.26 604.83 362.24 595.85 372.86 C 589.70 380.45 579.79 385.43 569.91 383.94 C 561.85 383.15 555.15 378.28 548.03 374.93 C 544.63 373.22 540.77 373.03 537.05 373.40 C 535.65 384.24 536.70 395.19 537.11 406.06 C 538.19 429.34 540.33 452.63 539.41 475.95 C 539.43 479.91 538.14 483.70 536.86 487.40 C 533.29 488.37 529.73 489.47 526.04 489.89 C 504.49 492.88 482.70 494.08 460.95 494.33 C 451.01 494.20 440.75 494.68 431.21 491.41 C 431.12 486.64 431.23 481.72 433.20 477.29 C 436.16 470.38 437.77 462.75 436.72 455.25 C 434.65 444.31 426.91 435.02 417.30 429.71 C 405.41 422.95 390.93 422.25 377.76 424.93 C 368.37 426.84 359.39 432.08 354.42 440.47 C 349.28 449.22 346.47 459.90 348.99 469.95 C 351.24 479.15 356.00 487.63 357.06 497.14 C 353.08 497.89 349.07 498.65 345.01 498.54 C 319.20 498.63 293.42 496.30 267.90 492.57 C 259.95 490.87 251.53 490.11 244.60 485.47 C 242.97 476.67 240.71 467.98 239.46 459.12 C 238.12 440.75 236.02 422.42 235.69 403.99 C 235.25 387.33 234.24 370.68 234.38 354.00 C 234.38 339.32 234.29 324.63 234.35 309.95 C 234.84 293.48 235.38 277.01 235.93 260.54 C 236.74 249.38 237.91 238.24 238.80 227.08 C 239.15 218.44 242.68 210.41 244.51 202.05 C 247.27 201.35 250.04 200.57 252.90 200.43 C 282.96 200.07 312.91 205.10 342.97 203.21 C 346.52 203.15 349.67 201.34 352.88 200.04 C 349.26 187.91 340.40 177.98 337.81 165.47 C 335.46 153.31 339.69 140.12 348.42 131.38 M 382.76 258.74 C 367.66 262.79 354.24 272.73 346.00 286.02 C 338.40 298.10 335.10 312.82 336.89 326.98 C 338.76 342.77 346.94 357.69 359.22 367.77 C 371.57 378.05 387.98 383.26 404.00 381.97 C 418.86 380.94 433.10 374.23 443.69 363.81 C 428.88 348.97 414.04 334.17 399.24 319.34 C 414.06 304.52 428.88 289.71 443.69 274.89 C 428.10 259.25 404.07 252.70 382.76 258.74 Z" />
<path fill="#252525" opacity="1.00" d=" M 619.03 187.02 C 641.01 186.43 662.97 185.13 684.95 185.29 C 698.30 185.29 711.65 185.18 725.00 185.23 C 741.69 185.73 758.37 186.28 775.05 186.84 C 786.21 187.65 797.34 188.82 808.49 189.71 C 817.19 190.09 825.30 193.54 833.69 195.51 C 834.30 198.33 835.03 201.14 835.21 204.04 C 835.50 234.09 830.52 264.05 832.41 294.11 C 832.50 297.58 834.33 300.65 835.59 303.80 C 848.01 300.05 858.18 290.85 871.11 288.52 C 884.00 286.51 897.99 291.52 906.30 301.66 C 913.37 310.26 915.08 322.09 913.43 332.83 C 912.34 342.22 907.81 351.49 899.99 357.05 C 891.15 363.31 879.67 365.04 869.13 363.31 C 860.83 361.83 853.22 358.04 845.65 354.51 C 842.49 353.13 838.95 351.25 835.50 352.83 C 835.58 397.24 835.46 441.65 835.56 486.06 C 832.10 486.97 828.61 487.97 825.00 487.86 C 801.97 488.12 779.00 485.87 756.00 485.01 C 745.15 484.72 734.12 483.70 723.45 486.16 C 724.25 493.25 728.01 499.48 729.85 506.30 C 732.82 516.53 732.97 528.14 727.68 537.67 C 722.48 547.58 712.01 553.93 701.14 555.65 C 687.59 558.27 672.48 555.44 661.99 546.10 C 654.63 539.79 650.03 529.82 651.79 520.05 C 652.75 512.19 657.59 505.69 660.80 498.67 C 662.43 495.33 662.58 491.57 662.20 487.95 C 650.85 486.53 639.42 487.64 628.05 488.10 C 605.06 489.16 582.06 491.27 559.04 490.29 C 555.34 490.22 551.84 488.95 548.34 487.91 C 547.25 484.30 546.13 480.68 545.72 476.92 C 542.49 453.44 541.29 429.72 541.26 406.04 C 541.63 397.99 541.38 389.74 544.26 382.08 C 548.91 382.08 553.71 382.10 558.05 384.01 C 565.20 387.05 573.13 388.84 580.89 387.52 C 590.47 385.52 598.86 379.19 604.14 371.06 C 611.29 360.59 613.11 347.31 611.68 334.93 C 610.73 324.93 606.96 314.66 599.04 308.11 C 592.00 302.46 583.01 299.33 574.03 298.92 C 561.49 298.78 550.77 306.70 538.46 307.96 C 537.96 305.01 537.30 302.08 537.16 299.09 C 536.67 279.33 538.33 259.60 540.24 239.96 C 541.63 228.89 542.88 217.78 545.47 206.92 C 546.05 202.76 548.15 199.09 550.17 195.49 C 558.76 193.90 567.26 191.75 575.89 190.43 C 590.27 189.28 604.64 187.98 619.03 187.02 M 692.37 275.45 C 679.96 282.79 673.61 296.81 670.76 310.41 C 665.65 335.42 667.45 361.11 668.52 386.42 C 672.97 380.74 677.36 375.01 681.81 369.33 C 685.70 374.51 689.59 379.70 693.49 384.90 C 697.18 379.98 700.76 374.98 704.51 370.11 C 708.60 375.26 712.78 380.34 716.93 385.44 C 721.10 380.34 725.22 375.19 729.42 370.11 C 733.05 375.04 736.71 379.97 740.36 384.89 C 744.26 379.71 748.14 374.51 752.05 369.33 C 756.49 375.01 760.87 380.73 765.32 386.40 C 766.37 363.91 767.69 341.24 764.62 318.85 C 762.62 305.56 758.89 291.68 749.33 281.72 C 742.20 274.08 731.95 270.46 721.88 268.73 C 711.66 267.60 701.25 270.46 692.37 275.45 Z" />
<path fill="#252525" opacity="1.00" d=" M 394.23 276.29 C 398.89 274.48 404.61 277.28 406.05 282.07 C 407.75 286.78 404.75 292.43 399.92 293.73 C 395.28 295.24 389.88 292.28 388.56 287.61 C 387.06 283.09 389.74 277.80 394.23 276.29 Z" />
<path fill="#252525" opacity="1.00" d=" M 695.48 292.66 C 702.08 290.84 709.36 296.08 709.73 302.91 C 710.50 309.48 704.63 315.75 698.03 315.45 C 691.96 315.51 686.60 310.09 686.65 304.04 C 686.50 298.79 690.37 293.82 695.48 292.66 Z" />
<path fill="#252525" opacity="1.00" d=" M 733.38 292.59 C 740.32 290.84 747.72 296.85 747.41 304.01 C 747.56 310.85 740.68 316.63 733.97 315.29 C 727.62 314.43 723.02 307.63 724.56 301.41 C 725.47 297.08 729.06 293.50 733.38 292.59 Z" />
<path fill="#252525" opacity="1.00" d=" M 377.89 434.87 C 390.57 430.89 405.04 431.55 416.73 438.18 C 425.60 443.17 432.94 452.05 433.75 462.49 C 434.57 470.83 430.87 478.69 426.79 485.70 C 424.05 490.32 422.16 495.61 423.10 501.04 C 434.06 502.43 445.10 501.37 456.09 500.95 C 479.36 499.87 502.64 497.72 525.96 498.68 C 529.75 498.70 533.36 499.99 536.96 501.08 C 537.83 504.04 538.79 507.00 539.27 510.08 C 541.97 527.59 542.97 545.30 543.77 562.99 C 544.04 574.82 544.34 586.69 543.19 598.50 C 542.77 601.37 541.81 604.13 541.02 606.92 C 536.33 606.90 531.49 606.87 527.12 604.93 C 520.09 601.94 512.31 600.23 504.67 601.40 C 491.60 604.03 481.10 614.55 476.58 626.82 C 472.95 636.02 472.58 646.20 473.83 655.92 C 475.05 665.22 478.77 674.63 486.13 680.76 C 493.13 686.46 502.11 689.59 511.09 690.06 C 523.70 690.27 534.47 682.30 546.84 681.02 C 547.57 684.97 548.31 688.95 548.21 692.99 C 548.32 718.92 545.97 744.82 542.21 770.45 C 540.50 778.29 539.75 786.58 535.21 793.44 C 524.12 795.48 513.20 798.73 501.88 799.19 C 486.94 800.24 472.05 801.98 457.07 802.27 C 442.39 802.70 427.71 803.39 413.01 803.67 C 389.01 803.54 364.99 804.23 340.99 803.16 C 326.95 802.54 312.86 802.71 298.88 801.21 C 289.56 800.32 280.22 799.71 270.92 798.65 C 264.41 797.22 258.05 795.13 251.59 793.46 C 250.83 789.99 249.93 786.52 250.06 782.94 C 250.18 757.27 253.40 731.71 253.40 706.04 C 252.92 699.03 253.84 691.34 249.48 685.31 C 237.45 688.87 227.62 697.71 215.21 700.26 C 203.08 702.62 189.93 698.44 181.17 689.77 C 175.25 683.77 171.83 675.49 171.49 667.09 C 170.65 655.86 173.28 643.63 181.34 635.34 C 191.51 625.20 207.57 622.95 220.99 626.81 C 229.07 628.95 236.27 633.34 244.06 636.25 C 245.94 637.10 247.96 636.85 249.83 636.09 C 249.74 591.68 249.81 547.27 249.79 502.86 C 253.14 502.04 256.51 501.06 259.99 501.13 C 286.70 500.85 313.30 503.79 339.99 504.34 C 347.31 504.48 354.69 504.59 361.86 502.81 C 361.07 495.89 357.45 489.80 355.60 483.17 C 352.59 473.11 352.27 461.74 357.15 452.20 C 361.24 443.83 369.09 437.69 377.89 434.87 M 370.22 606.20 C 357.76 613.47 351.31 627.47 348.44 641.08 C 343.27 666.15 345.06 691.94 346.16 717.32 C 350.58 711.62 355.01 705.91 359.43 700.21 C 363.34 705.39 367.21 710.59 371.12 715.78 C 374.79 710.86 378.42 705.91 382.08 700.99 C 386.25 706.10 390.39 711.22 394.54 716.34 C 398.72 711.24 402.86 706.10 407.02 700.99 C 410.69 705.91 414.33 710.85 417.99 715.78 C 421.89 710.59 425.77 705.39 429.68 700.21 C 434.12 705.90 438.50 711.64 442.98 717.31 C 443.96 694.95 445.33 672.42 442.30 650.16 C 440.46 637.71 437.20 624.85 429.03 614.94 C 423.26 607.75 414.82 603.15 405.94 601.05 C 394.01 597.23 380.93 600.31 370.22 606.20 Z" />
<path fill="#252525" opacity="1.00" d=" M 728.07 489.65 C 731.69 489.01 735.34 488.23 739.05 488.30 C 764.19 488.10 789.30 490.33 814.18 493.80 C 819.55 494.49 824.80 495.85 830.11 496.89 C 833.89 497.50 837.17 499.58 840.50 501.33 C 842.12 509.87 844.20 518.33 845.56 526.92 C 847.05 546.25 849.17 565.56 849.49 584.96 C 850.09 603.31 850.96 621.65 850.73 640.01 C 850.70 657.33 851.10 674.65 850.30 691.95 C 849.61 707.62 849.80 723.34 848.12 738.95 C 847.23 747.92 846.71 756.94 845.63 765.90 C 844.15 772.27 842.14 778.52 840.52 784.87 C 837.70 785.49 834.88 786.23 832.00 786.40 C 801.93 786.71 771.97 781.72 741.90 783.61 C 738.42 783.68 735.37 785.53 732.23 786.78 C 735.40 797.49 742.69 806.37 746.11 816.99 C 750.11 828.44 747.34 841.58 740.30 851.27 C 734.69 859.00 725.61 864.03 716.11 864.84 C 705.01 866.04 692.93 863.99 684.12 856.74 C 676.31 850.25 672.53 840.00 672.12 830.05 C 671.62 821.82 673.91 813.72 677.19 806.26 C 679.54 800.55 682.85 795.21 684.14 789.12 C 683.83 788.52 683.21 787.32 682.90 786.72 C 638.56 786.70 594.23 786.72 549.90 786.71 C 549.03 783.19 548.02 779.65 548.15 776.00 C 547.88 748.62 551.06 721.35 551.37 693.99 C 551.61 687.50 551.34 680.99 549.85 674.64 C 542.82 675.43 536.64 679.16 529.89 680.99 C 519.57 684.03 507.85 684.20 498.26 678.84 C 488.56 673.71 482.27 663.52 480.46 652.87 C 477.72 639.33 480.38 624.18 489.59 613.56 C 495.70 606.25 505.35 601.48 515.00 602.85 C 522.86 603.59 529.49 608.16 536.38 611.58 C 539.97 613.46 544.08 613.89 548.07 613.39 C 549.49 601.96 548.36 590.43 547.90 578.97 C 546.84 556.01 544.72 533.04 545.74 510.04 C 545.81 506.39 547.08 502.94 548.15 499.50 C 561.05 495.52 574.70 495.23 588.04 493.91 C 606.68 492.78 625.41 491.73 644.06 493.16 C 647.46 493.37 650.67 494.56 653.93 495.46 C 653.93 500.09 653.92 504.87 652.03 509.20 C 648.34 517.87 646.35 528.02 649.95 537.06 C 655.27 551.11 669.31 560.50 683.86 562.61 C 696.48 564.27 710.24 563.25 721.21 556.24 C 731.15 549.61 736.23 537.58 737.07 525.98 C 737.58 513.14 729.32 502.20 728.07 489.65 M 684.62 612.50 C 675.21 622.25 671.38 635.85 669.37 648.92 C 666.09 671.58 667.51 694.56 668.51 717.33 C 672.95 711.63 677.36 705.91 681.80 700.21 C 685.72 705.39 689.57 710.62 693.52 715.78 C 697.14 710.83 700.80 705.92 704.45 700.99 C 708.62 706.09 712.75 711.23 716.93 716.33 C 721.10 711.23 725.23 706.10 729.40 701.00 C 733.08 705.91 736.68 710.88 740.39 715.77 C 744.26 710.57 748.15 705.39 752.05 700.21 C 756.49 705.89 760.87 711.62 765.33 717.29 C 766.41 692.17 768.17 666.66 763.20 641.82 C 760.40 628.07 754.09 613.85 741.57 606.39 C 732.74 601.40 722.40 598.54 712.22 599.58 C 702.11 601.27 691.82 604.87 684.62 612.50 Z" />
<path fill="#252525" opacity="1.00" d=" M 373.37 623.49 C 380.36 621.71 387.81 627.82 387.41 635.03 C 387.48 642.17 379.93 647.97 373.05 646.00 C 366.65 644.59 362.59 637.14 364.92 631.00 C 366.18 627.25 369.50 624.31 373.37 623.49 Z" />
<path fill="#252525" opacity="1.00" d=" M 410.40 623.63 C 417.12 621.54 424.70 626.91 425.01 633.92 C 425.76 640.92 418.99 647.38 412.03 646.25 C 405.72 645.62 400.85 639.12 402.08 632.89 C 402.75 628.53 406.15 624.77 410.40 623.63 Z" />
<path fill="#252525" opacity="1.00" d=" M 695.39 623.57 C 702.02 621.67 709.41 626.97 709.73 633.86 C 710.54 640.80 703.89 647.26 696.97 646.28 C 690.98 645.77 686.13 639.99 686.68 634.00 C 686.95 629.12 690.64 624.70 695.39 623.57 Z" />
<path fill="#252525" opacity="1.00" d=" M 733.39 623.48 C 740.36 621.73 747.77 627.79 747.41 634.98 C 747.53 642.13 739.98 647.97 733.08 646.01 C 726.36 644.56 722.31 636.48 725.23 630.24 C 726.64 626.83 729.79 624.25 733.39 623.48 Z" />
</g>
</svg>
