<?xml version="1.0" encoding="UTF-8" ?>
<!DOCTYPE svg PUBLIC "-//W3C//DTD SVG 1.1//EN" "http://www.w3.org/Graphics/SVG/1.1/DTD/svg11.dtd">
<svg width="3667pt" height="3667pt" viewBox="0 0 3667 3667" version="1.1" xmlns="http://www.w3.org/2000/svg">
<g id="#252525ff">
<path fill="#252525" opacity="1.00" d=" M 2089.71 29.47 C 2102.66 43.29 2112.98 59.35 2122.07 75.91 C 2139.78 108.95 2150.60 145.59 2154.16 182.89 C 2158.36 226.07 2152.75 269.86 2140.22 311.29 C 2127.94 352.09 2109.19 390.72 2086.86 426.93 C 2048.39 488.87 1999.77 543.91 1947.20 594.20 C 1917.56 622.41 1886.60 649.22 1854.63 674.75 C 1826.90 696.79 1799.56 719.39 1774.16 744.12 C 1746.41 770.92 1720.55 799.86 1698.76 831.75 C 1677.54 863.03 1660.19 897.44 1651.60 934.42 C 1645.24 961.40 1643.63 989.49 1647.04 1017.00 C 1652.15 1059.76 1668.65 1100.27 1689.19 1137.80 C 1725.59 1203.92 1773.86 1262.40 1813.53 1326.45 C 1825.41 1345.72 1836.44 1365.55 1845.64 1386.26 C 1791.72 1337.62 1738.47 1288.14 1688.30 1235.61 C 1662.24 1208.25 1637.11 1179.98 1613.72 1150.29 C 1589.64 1119.50 1567.41 1087.07 1549.85 1052.09 C 1531.94 1016.31 1519.02 977.24 1517.97 936.96 C 1516.70 898.54 1527.62 860.22 1547.27 827.33 C 1564.93 798.17 1586.64 771.67 1609.79 746.73 C 1661.13 691.99 1720.31 645.51 1779.12 599.18 C 1840.30 551.06 1902.33 503.61 1957.72 448.74 C 1984.56 422.04 2009.80 393.58 2031.54 362.54 C 2054.88 329.36 2074.06 293.08 2086.67 254.46 C 2099.59 215.07 2105.34 173.44 2104.30 132.03 C 2103.53 97.41 2098.08 63.03 2089.71 29.47 Z" />
<path fill="#252525" opacity="1.00" d=" M 2347.41 549.61 C 2364.41 544.41 2381.40 539.13 2398.66 534.88 C 2349.44 563.88 2300.34 593.16 2252.55 624.49 C 2197.91 660.28 2144.26 697.95 2095.22 741.22 C 2068.27 765.27 2042.57 791.11 2021.83 820.81 C 2002.28 848.73 1987.54 881.43 1987.07 916.02 C 1986.30 950.69 1999.67 983.80 2016.54 1013.46 C 2038.57 1051.81 2065.72 1086.85 2091.09 1122.99 C 2108.30 1147.65 2121.10 1175.94 2124.87 1205.96 C 2128.82 1235.65 2123.40 1266.09 2111.54 1293.44 C 2098.53 1323.64 2078.71 1350.43 2056.27 1374.28 C 2025.10 1407.02 1989.04 1434.88 1950.67 1458.69 C 1942.54 1463.61 1934.40 1468.54 1926.00 1472.98 C 1946.83 1454.55 1964.74 1432.75 1978.61 1408.62 C 1994.34 1381.21 2004.26 1349.79 2003.01 1317.95 C 2002.08 1288.59 1991.44 1260.13 1975.24 1235.83 C 1967.60 1224.04 1958.35 1213.45 1949.25 1202.79 C 1929.90 1179.69 1912.00 1155.32 1896.54 1129.43 C 1875.01 1093.28 1858.20 1053.81 1851.25 1012.14 C 1844.81 974.46 1847.24 935.26 1858.80 898.79 C 1868.84 866.59 1885.47 836.71 1905.78 809.88 C 1927.88 780.65 1954.24 754.86 1982.53 731.67 C 2038.45 686.16 2101.50 650.20 2166.57 619.54 C 2225.15 592.11 2285.74 569.08 2347.41 549.61 Z" />
<path fill="#252525" opacity="1.00" d=" M 2456.39 1383.47 C 2496.48 1369.40 2539.78 1363.54 2582.05 1369.07 C 2619.95 1373.96 2656.97 1388.16 2687.15 1411.83 C 2713.36 1432.10 2734.10 1459.79 2744.76 1491.28 C 2756.62 1525.59 2755.48 1563.69 2743.74 1597.88 C 2733.26 1628.93 2715.04 1656.90 2693.26 1681.19 C 2671.08 1705.94 2645.16 1727.11 2617.65 1745.65 C 2583.61 1768.49 2547.04 1787.36 2509.40 1803.50 C 2461.08 1824.21 2410.93 1840.40 2360.14 1853.87 C 2363.83 1850.26 2367.33 1846.34 2369.56 1841.64 C 2403.92 1823.63 2437.66 1804.36 2469.97 1782.86 C 2503.96 1760.25 2536.55 1735.30 2565.76 1706.71 C 2592.10 1680.75 2615.93 1651.64 2632.28 1618.28 C 2641.82 1598.73 2648.59 1577.66 2650.67 1555.94 C 2652.66 1535.70 2650.35 1514.99 2643.39 1495.85 C 2633.73 1468.92 2615.17 1445.61 2592.14 1428.83 C 2562.31 1407.04 2524.96 1395.19 2487.97 1397.50 C 2476.30 1398.13 2464.91 1400.88 2453.57 1403.48 C 2440.92 1406.44 2428.38 1409.86 2416.13 1414.20 C 2426.04 1400.23 2440.16 1389.11 2456.39 1383.47 Z" />
<path fill="#252525" opacity="1.00" d=" M 1550.99 1390.55 C 1554.71 1390.57 1558.44 1390.65 1562.17 1390.98 C 1499.64 1406.97 1437.14 1424.02 1377.15 1448.08 C 1361.68 1454.52 1346.28 1461.29 1331.92 1469.97 C 1324.26 1474.72 1316.61 1479.88 1310.90 1486.96 C 1307.48 1491.23 1304.84 1496.99 1306.80 1502.49 C 1309.28 1509.15 1315.71 1513.16 1321.67 1516.40 C 1336.18 1523.68 1352.16 1527.29 1367.96 1530.60 C 1416.41 1540.01 1465.82 1542.88 1515.05 1545.00 C 1603.01 1548.20 1691.08 1546.84 1779.02 1543.52 C 1850.43 1540.70 1921.78 1536.36 1993.01 1530.52 C 2119.72 1519.82 2245.77 1502.31 2371.12 1481.13 C 2335.23 1497.01 2300.00 1514.68 2266.87 1535.80 C 2263.00 1538.01 2259.71 1541.47 2255.20 1542.33 C 2157.10 1567.48 2056.63 1582.16 1955.98 1592.30 C 1889.83 1598.88 1823.47 1603.20 1757.05 1605.72 C 1671.72 1608.87 1586.26 1609.10 1500.93 1605.79 C 1453.58 1603.91 1406.27 1600.93 1359.11 1596.25 C 1313.02 1591.54 1266.96 1585.55 1221.74 1575.32 C 1200.76 1570.38 1179.82 1564.71 1160.11 1555.85 C 1152.02 1552.06 1144.03 1547.74 1137.43 1541.64 C 1132.78 1537.32 1128.79 1531.58 1128.69 1525.02 C 1128.56 1518.35 1132.30 1512.36 1136.66 1507.61 C 1145.77 1497.91 1157.52 1491.23 1169.22 1485.16 C 1245.19 1447.94 1326.01 1420.49 1409.12 1404.61 C 1455.87 1395.82 1503.37 1390.31 1550.99 1390.55 Z" />
<path fill="#252525" opacity="1.00" d=" M 1385.21 1701.15 C 1408.55 1689.29 1433.10 1680.01 1457.90 1671.73 C 1446.75 1681.00 1435.97 1691.32 1429.12 1704.28 C 1425.11 1711.93 1422.70 1721.13 1425.55 1729.58 C 1428.38 1738.19 1435.66 1744.40 1443.30 1748.77 C 1455.50 1755.63 1469.19 1759.32 1482.84 1762.06 C 1502.39 1766.05 1522.33 1767.46 1542.15 1769.48 C 1613.22 1776.32 1684.56 1780.95 1755.99 1780.74 C 1896.87 1780.84 2036.97 1761.58 2175.08 1735.02 C 2204.22 1762.39 2239.20 1783.34 2276.69 1797.08 C 2186.12 1823.57 2093.38 1842.40 1999.86 1854.81 C 1890.60 1869.09 1780.14 1874.84 1670.02 1870.21 C 1602.92 1867.14 1535.76 1860.59 1470.05 1846.29 C 1435.26 1838.41 1400.46 1828.80 1368.62 1812.38 C 1356.00 1805.63 1343.61 1797.66 1334.47 1786.46 C 1328.21 1778.83 1324.10 1768.87 1325.53 1758.88 C 1327.10 1747.30 1334.51 1737.53 1342.71 1729.64 C 1355.16 1717.84 1370.04 1708.99 1385.21 1701.15 Z" />
<path fill="#252525" opacity="1.00" d=" M 1435.79 1974.78 C 1460.92 1959.91 1488.84 1950.58 1516.80 1942.60 C 1509.57 1947.64 1502.30 1952.90 1496.81 1959.89 C 1492.95 1964.73 1489.77 1970.65 1490.16 1977.02 C 1490.45 1983.08 1494.43 1988.25 1499.06 1991.86 C 1507.44 1998.43 1517.62 2002.11 1527.69 2005.22 C 1556.76 2013.73 1587.10 2016.06 1617.07 2019.42 C 1668.22 2024.69 1719.53 2028.87 1770.97 2029.56 C 1822.94 2030.37 1874.93 2027.33 1926.54 2021.30 C 1983.70 2014.61 2040.42 2004.76 2096.98 1994.18 C 2140.29 2020.12 2185.92 2042.17 2232.94 2060.53 C 2195.32 2077.00 2156.38 2090.34 2117.00 2101.91 C 2025.64 2128.19 1930.97 2142.49 1836.01 2145.89 C 1782.80 2147.76 1729.46 2146.20 1676.49 2140.77 C 1629.43 2135.84 1582.59 2127.98 1536.96 2115.37 C 1510.87 2108.02 1485.09 2099.19 1460.73 2087.24 C 1448.56 2081.18 1436.73 2074.33 1425.97 2065.99 C 1415.29 2057.52 1405.10 2047.28 1400.58 2034.12 C 1397.13 2024.44 1398.48 2013.45 1403.57 2004.61 C 1410.97 1991.65 1423.26 1982.42 1435.79 1974.78 Z" />
<path fill="#252525" opacity="1.00" d=" M 1158.38 2135.63 C 1186.83 2129.02 1215.74 2123.98 1244.93 2122.25 C 1262.67 2121.30 1280.62 2121.44 1298.12 2124.85 C 1308.04 2126.87 1317.94 2130.02 1326.38 2135.76 C 1294.56 2135.19 1262.88 2140.27 1231.97 2147.52 C 1204.67 2154.39 1177.79 2163.04 1151.72 2173.67 C 1137.70 2179.50 1123.86 2185.92 1111.00 2194.04 C 1103.48 2198.88 1096.09 2204.32 1090.69 2211.56 C 1087.09 2216.37 1084.96 2222.91 1087.33 2228.74 C 1090.28 2235.97 1097.10 2240.59 1103.66 2244.29 C 1114.32 2249.90 1125.74 2253.90 1137.05 2258.01 C 1186.31 2274.72 1237.64 2284.24 1288.96 2292.03 C 1388.68 2306.54 1489.39 2312.92 1590.04 2316.41 C 1694.98 2319.81 1800.02 2319.37 1904.95 2316.10 C 2008.43 2312.70 2111.84 2306.50 2214.88 2296.36 C 2261.32 2291.70 2307.68 2286.23 2353.85 2279.37 C 2399.92 2272.46 2445.87 2264.37 2491.08 2253.01 C 2513.66 2247.22 2536.16 2240.71 2557.62 2231.48 C 2571.84 2225.23 2585.87 2217.91 2597.51 2207.48 C 2605.73 2200.05 2612.78 2190.36 2613.96 2179.06 C 2615.49 2165.10 2607.70 2152.00 2597.81 2142.81 C 2611.85 2149.25 2625.90 2156.94 2636.16 2168.76 C 2643.10 2176.64 2647.09 2187.66 2644.39 2198.09 C 2641.03 2211.54 2630.95 2221.95 2620.65 2230.62 C 2604.25 2244.10 2585.34 2254.07 2566.25 2263.15 C 2526.95 2281.26 2485.62 2294.55 2443.98 2306.11 C 2355.45 2330.24 2264.83 2345.91 2173.91 2357.82 C 2072.11 2370.88 1969.66 2378.60 1867.11 2382.31 C 1658.78 2389.60 1449.94 2380.42 1242.88 2356.49 C 1185.45 2349.78 1128.14 2341.99 1071.03 2332.93 C 1046.47 2329.22 1021.91 2325.00 998.01 2318.11 C 983.73 2313.89 969.55 2308.91 956.57 2301.54 C 945.29 2294.98 933.79 2285.87 930.70 2272.53 C 927.86 2259.65 934.62 2247.15 942.64 2237.57 C 953.68 2224.45 967.65 2214.19 982.00 2204.97 C 1005.57 2190.07 1030.90 2178.17 1056.71 2167.72 C 1089.73 2154.49 1123.76 2143.81 1158.38 2135.63 Z" />
<path fill="#252525" opacity="1.00" d=" M 2738.51 2287.44 C 2744.54 2282.01 2750.08 2275.97 2754.22 2268.95 C 2752.64 2288.83 2744.59 2307.82 2732.69 2323.70 C 2713.54 2349.26 2686.71 2367.77 2659.01 2382.99 C 2624.89 2401.45 2588.39 2415.09 2551.41 2426.58 C 2503.39 2441.36 2454.28 2452.31 2404.88 2461.35 C 2309.43 2478.56 2212.81 2488.54 2116.07 2494.94 C 2009.54 2501.74 1902.73 2504.04 1795.99 2502.42 C 1742.94 2501.61 1689.90 2499.82 1636.92 2496.84 C 1586.55 2494.10 1536.23 2490.17 1486.12 2484.38 C 1439.09 2478.83 1392.16 2471.82 1346.05 2460.88 C 1327.78 2456.48 1309.63 2451.47 1291.97 2445.03 C 1280.56 2440.68 1269.04 2436.20 1258.87 2429.33 C 1357.90 2445.31 1457.95 2454.27 1558.08 2459.52 C 1662.27 2464.89 1766.68 2466.00 1870.97 2463.20 C 1972.20 2460.47 2073.34 2454.03 2174.01 2443.01 C 2267.63 2432.70 2360.90 2418.54 2452.90 2398.29 C 2498.46 2388.20 2543.70 2376.53 2588.06 2362.02 C 2625.04 2349.72 2661.63 2335.70 2695.82 2316.85 C 2710.90 2308.39 2725.61 2299.03 2738.51 2287.44 Z" />
<path fill="#252525" opacity="1.00" d=" M 998.53 2663.54 C 1039.61 2663.53 1080.69 2663.52 1121.77 2663.55 C 1121.76 2774.35 1121.77 2885.16 1121.76 2995.97 C 1121.69 3103.98 1121.92 3212.00 1121.64 3320.02 C 1121.38 3345.71 1120.69 3371.43 1118.59 3397.05 C 1116.50 3421.38 1113.18 3445.75 1106.25 3469.22 C 1100.43 3489.06 1091.49 3507.93 1080.19 3525.22 C 1059.22 3556.71 1030.69 3582.69 999.02 3603.13 C 978.54 3616.32 956.57 3627.16 933.76 3635.69 C 914.68 3613.23 895.58 3590.79 876.52 3568.31 C 909.01 3551.37 938.34 3527.94 960.91 3498.99 C 970.42 3486.68 978.51 3473.16 983.64 3458.43 C 990.81 3438.41 993.75 3417.19 995.66 3396.11 C 997.85 3370.47 998.37 3344.73 998.53 3319.01 C 998.53 3100.52 998.52 2882.03 998.53 2663.54 Z" />
<path fill="#252525" opacity="1.00" d=" M 1235.35 2901.46 C 1296.01 2874.52 1361.55 2858.12 1427.94 2855.29 C 1471.52 2853.45 1516.41 2856.23 1557.29 2872.65 C 1586.57 2884.30 1612.82 2904.75 1628.78 2932.20 C 1639.16 2949.72 1645.50 2969.42 1648.71 2989.47 C 1651.80 3007.81 1651.61 3026.46 1651.53 3045.01 C 1651.52 3173.83 1651.54 3302.65 1651.52 3431.47 C 1621.21 3431.46 1590.90 3431.46 1560.59 3431.47 C 1557.52 3410.98 1554.55 3390.48 1551.49 3370.00 C 1522.78 3394.82 1490.85 3416.73 1454.88 3429.54 C 1414.75 3444.03 1370.81 3445.97 1328.96 3438.86 C 1296.87 3433.26 1265.10 3419.64 1242.79 3395.29 C 1220.29 3371.19 1209.30 3338.43 1206.66 3306.03 C 1204.37 3278.91 1206.51 3251.14 1215.26 3225.26 C 1224.52 3197.60 1241.91 3172.91 1264.34 3154.34 C 1293.07 3130.35 1328.47 3115.83 1364.45 3106.69 C 1387.95 3100.81 1411.96 3097.12 1436.07 3095.01 C 1469.15 3091.86 1502.40 3092.62 1535.58 3092.53 C 1535.59 3075.36 1535.59 3058.19 1535.58 3041.02 C 1535.50 3021.96 1532.84 3002.33 1523.70 2985.34 C 1516.62 2971.96 1505.15 2961.14 1491.71 2954.28 C 1473.32 2944.80 1452.45 2941.50 1431.99 2940.44 C 1388.72 2938.62 1345.50 2945.58 1303.79 2956.74 C 1286.43 2961.40 1269.32 2966.95 1252.42 2973.08 C 1246.74 2949.20 1241.09 2925.32 1235.35 2901.46 M 1425.83 3170.27 C 1404.79 3173.39 1383.65 3178.47 1364.93 3188.88 C 1351.36 3196.39 1339.43 3207.34 1332.18 3221.17 C 1323.42 3237.56 1321.22 3256.60 1321.95 3274.94 C 1322.72 3293.40 1327.53 3312.27 1338.80 3327.20 C 1348.50 3340.29 1363.01 3349.31 1378.62 3353.58 C 1398.97 3359.15 1420.71 3358.51 1441.10 3353.46 C 1476.58 3344.51 1508.10 3324.25 1535.59 3300.62 C 1535.59 3255.88 1535.59 3211.14 1535.59 3166.40 C 1498.99 3166.73 1462.17 3164.89 1425.83 3170.27 Z" />
<path fill="#252525" opacity="1.00" d=" M 2293.00 2901.38 C 2353.49 2874.66 2418.75 2858.19 2484.92 2855.33 C 2528.54 2853.42 2573.49 2856.13 2614.45 2872.48 C 2643.77 2884.06 2670.09 2904.42 2686.16 2931.81 C 2696.58 2949.23 2702.97 2968.84 2706.24 2988.82 C 2709.51 3007.69 2709.24 3026.90 2709.18 3045.99 C 2709.17 3174.48 2709.18 3302.97 2709.17 3431.46 C 2678.85 3431.47 2648.53 3431.48 2618.21 3431.45 C 2615.19 3410.97 2612.15 3390.49 2609.11 3370.01 C 2580.57 3394.61 2548.91 3416.40 2513.25 3429.24 C 2472.68 3444.07 2428.16 3446.06 2385.82 3438.74 C 2353.12 3432.96 2320.80 3418.69 2298.59 3393.36 C 2276.31 3368.39 2265.99 3334.89 2263.92 3301.97 C 2261.15 3263.48 2268.16 3223.23 2289.59 3190.58 C 2307.68 3162.46 2334.98 3141.25 2364.94 3126.98 C 2405.25 3107.68 2449.75 3098.95 2494.01 3094.98 C 2527.00 3091.85 2560.16 3092.65 2593.24 3092.51 C 2593.22 3075.98 2593.23 3059.46 2593.24 3042.94 C 2593.34 3023.12 2590.76 3002.62 2581.16 2984.98 C 2573.77 2971.19 2561.68 2960.20 2547.65 2953.42 C 2528.23 2943.93 2506.37 2940.99 2484.99 2940.25 C 2425.16 2938.89 2365.99 2952.84 2310.02 2973.08 C 2304.34 2949.18 2298.61 2925.29 2293.00 2901.38 M 2482.86 3170.35 C 2463.30 3173.27 2443.73 3177.94 2426.03 3186.98 C 2411.76 3194.23 2398.92 3204.96 2390.92 3218.98 C 2381.31 3235.53 2378.78 3255.17 2379.44 3274.03 C 2380.09 3292.69 2384.83 3311.80 2396.15 3326.95 C 2405.73 3339.97 2420.04 3349.04 2435.51 3353.40 C 2456.53 3359.32 2479.07 3358.53 2500.11 3353.08 C 2535.02 3343.94 2566.01 3323.92 2593.20 3300.70 C 2593.30 3255.95 2593.16 3211.21 2593.28 3166.47 C 2556.46 3166.64 2519.41 3164.92 2482.86 3170.35 Z" />
<path fill="#252525" opacity="1.00" d=" M 1719.86 2865.00 C 1761.95 2865.00 1804.04 2864.99 1846.13 2865.01 C 1881.49 2978.94 1916.83 3092.87 1952.20 3206.81 C 1954.75 3214.36 1956.13 3222.23 1958.01 3229.98 C 1964.76 3259.14 1971.28 3288.36 1978.17 3317.49 C 2030.95 3171.04 2070.32 3019.44 2090.74 2865.00 C 2131.68 2865.00 2172.63 2865.00 2213.57 2865.00 C 2198.16 2951.64 2178.21 3037.47 2153.81 3122.03 C 2123.03 3227.84 2085.61 3331.91 2038.37 3431.53 C 1990.21 3431.38 1942.05 3431.51 1893.90 3431.46 C 1835.88 3242.65 1777.86 3053.83 1719.86 2865.00 Z" />
<path fill="#252525" opacity="1.00" d=" M 2720.12 2865.61 C 2732.28 2865.55 2744.45 2865.68 2756.62 2865.54 C 2756.68 2868.06 2756.71 2870.60 2756.71 2873.18 C 2752.19 2873.20 2747.68 2873.18 2743.18 2873.20 C 2743.16 2885.84 2743.18 2898.48 2743.17 2911.12 C 2740.00 2911.12 2736.85 2911.11 2733.71 2911.12 C 2733.70 2898.48 2733.70 2885.84 2733.71 2873.21 C 2729.19 2873.19 2724.68 2873.15 2720.19 2873.24 C 2720.09 2870.68 2720.07 2868.12 2720.12 2865.61 Z" />
<path fill="#252525" opacity="1.00" d=" M 2764.29 2911.12 C 2764.30 2895.94 2764.26 2880.76 2764.32 2865.59 C 2768.68 2865.59 2773.05 2865.60 2777.44 2865.58 C 2781.63 2876.31 2785.72 2887.09 2789.87 2897.85 C 2794.03 2887.12 2798.13 2876.37 2802.23 2865.62 C 2806.59 2865.57 2810.96 2865.59 2815.35 2865.60 C 2815.35 2880.77 2815.35 2895.95 2815.35 2911.13 C 2812.43 2911.11 2809.53 2911.11 2806.65 2911.13 C 2806.61 2899.07 2806.70 2887.01 2806.61 2874.96 C 2801.90 2886.95 2797.54 2899.08 2792.97 2911.13 C 2790.89 2911.10 2788.83 2911.09 2786.81 2911.13 C 2782.27 2899.14 2777.96 2887.07 2773.32 2875.13 C 2773.24 2887.12 2773.32 2899.12 2773.29 2911.13 C 2770.27 2911.11 2767.27 2911.11 2764.29 2911.12 Z" />
</g>
</svg>
