<?xml version="1.0" encoding="UTF-8" ?>
<!DOCTYPE svg PUBLIC "-//W3C//DTD SVG 1.1//EN" "http://www.w3.org/Graphics/SVG/1.1/DTD/svg11.dtd">
<svg width="1024pt" height="1024pt" viewBox="0 0 1024 1024" version="1.1" xmlns="http://www.w3.org/2000/svg">
<g id="#454545ff">
<path fill="#454545" opacity="1.00" d=" M 471.37 146.54 C 516.62 144.38 562.32 150.33 605.27 164.81 C 677.10 188.57 740.86 235.62 785.16 296.90 C 807.38 327.46 824.79 361.51 836.51 397.42 C 861.27 472.72 860.47 556.16 834.15 630.94 C 817.57 678.55 790.82 722.56 756.39 759.38 C 722.74 795.45 681.73 824.65 636.56 844.48 C 571.54 873.28 497.94 882.08 427.91 869.91 C 356.91 857.90 289.90 823.88 238.05 773.96 C 186.06 724.46 149.22 659.23 133.95 589.06 C 122.18 535.51 122.62 479.27 135.41 425.94 C 153.91 347.22 199.91 275.45 263.29 225.30 C 292.39 202.06 325.12 183.36 359.91 170.07 C 395.51 156.37 433.30 148.57 471.37 146.54 M 469.69 182.69 C 459.90 196.24 453.19 211.71 447.43 227.31 C 444.54 235.58 441.58 243.86 439.51 252.38 C 473.05 249.26 506.86 249.29 540.40 252.36 C 537.41 240.41 533.19 228.79 528.67 217.34 C 522.92 203.57 516.45 189.81 506.76 178.33 C 501.42 172.91 494.16 166.98 486.01 169.32 C 479.36 171.93 473.77 176.89 469.69 182.69 M 378.58 208.57 C 352.39 228.82 330.34 254.22 312.91 282.30 C 321.50 279.67 329.76 276.05 338.38 273.46 C 362.73 265.55 387.74 259.64 413.06 255.84 C 414.41 255.88 415.37 255.10 415.62 253.78 C 423.18 226.09 432.25 198.31 448.01 174.08 C 422.56 179.94 399.29 192.93 378.58 208.57 M 532.01 174.11 C 547.96 198.85 557.14 227.13 564.73 255.36 C 590.53 259.48 616.13 265.11 640.98 273.26 C 649.79 275.86 658.21 279.60 667.00 282.26 C 645.39 247.58 616.82 216.63 581.82 195.18 C 566.35 185.81 549.70 178.11 532.01 174.11 M 189.97 346.95 C 184.72 357.03 179.17 367.04 175.42 377.80 C 176.55 376.78 177.70 375.79 178.72 374.67 C 204.81 344.11 237.57 319.69 273.01 301.00 C 275.07 299.82 277.71 299.08 278.66 296.67 C 297.63 259.99 322.60 226.03 354.14 199.19 C 355.31 198.14 356.38 196.99 357.45 195.83 C 286.55 225.10 226.75 279.76 189.97 346.95 M 622.52 195.84 C 625.05 198.87 628.25 201.21 631.14 203.87 C 660.22 229.97 683.42 262.14 701.32 296.75 C 702.44 299.34 705.44 300.01 707.67 301.35 C 740.99 319.03 771.91 341.75 797.13 369.93 C 799.54 372.59 801.68 375.52 804.53 377.75 C 800.84 367.03 795.28 357.05 790.05 347.02 C 771.25 312.71 746.55 281.67 717.38 255.62 C 689.28 230.77 657.31 209.98 622.52 195.84 M 433.34 275.31 C 422.88 319.59 416.98 364.84 413.37 410.15 C 418.94 410.45 424.49 409.78 430.05 409.61 C 461.69 408.23 493.38 408.01 525.04 408.75 C 538.90 408.97 552.74 410.03 566.58 410.16 C 562.94 364.84 557.07 319.59 546.60 275.30 C 509.03 270.84 470.91 270.84 433.34 275.31 M 297.01 313.94 C 295.76 314.60 294.31 315.22 293.73 316.62 C 276.43 352.45 264.58 390.86 258.02 430.08 C 263.77 429.37 269.38 427.88 275.08 426.85 C 313.38 419.44 352.18 414.86 391.06 411.89 C 394.55 367.23 400.19 322.70 409.45 278.85 C 370.57 285.11 332.59 297.05 297.01 313.94 M 570.55 278.83 C 574.94 301.12 579.12 323.47 581.99 346.02 C 585.03 367.89 587.00 389.89 588.88 411.88 C 619.70 414.26 650.46 417.58 680.97 422.60 C 694.70 424.67 708.26 427.71 721.93 430.10 C 715.36 390.89 703.52 352.49 686.24 316.67 C 685.11 314.38 682.37 313.77 680.30 312.66 C 645.49 296.46 608.45 284.98 570.55 278.83 M 248.33 342.39 C 218.27 363.47 191.56 389.97 172.82 421.72 C 164.38 436.32 157.10 451.88 153.67 468.47 C 178.40 452.67 206.59 443.57 234.70 435.87 C 239.94 400.99 248.88 366.66 261.72 333.80 C 256.92 336.10 252.79 339.52 248.33 342.39 M 718.24 333.79 C 731.02 366.66 740.03 400.97 745.23 435.86 C 773.32 443.58 801.55 452.60 826.24 468.47 C 825.16 461.38 822.50 454.66 820.11 447.94 C 804.68 409.70 777.06 377.38 744.82 352.12 C 736.20 345.69 727.67 338.99 718.24 333.79 M 411.75 432.77 C 411.75 433.69 411.74 435.53 411.74 436.45 C 409.02 436.44 406.31 436.45 403.59 436.46 C 405.93 446.46 408.32 456.45 410.61 466.47 C 409.45 478.57 409.82 490.78 409.59 502.94 C 409.48 531.57 409.97 560.24 411.94 588.81 C 439.26 590.58 466.64 591.16 494.01 591.13 C 515.44 590.92 536.92 590.81 558.30 589.18 C 560.06 596.49 561.80 603.80 563.56 611.11 C 513.53 613.94 463.36 613.53 413.33 611.11 C 417.02 656.43 422.90 701.67 433.30 745.97 C 452.04 748.60 471.03 749.31 489.94 749.45 C 508.88 749.30 527.89 748.63 546.65 745.96 C 555.04 710.08 560.54 673.58 564.25 636.93 C 564.81 632.22 564.73 627.39 566.32 622.86 C 571.39 643.64 576.35 664.45 581.29 685.26 C 580.53 686.76 580.01 688.36 579.86 690.05 C 577.40 707.63 573.97 725.06 570.44 742.46 C 578.39 741.75 586.18 739.69 593.98 738.03 C 594.19 738.88 594.61 740.58 594.82 741.44 C 595.61 739.93 596.40 738.43 597.15 736.92 C 599.08 736.67 601.06 736.48 602.97 736.02 C 621.29 731.37 639.39 725.77 656.98 718.81 C 664.33 729.09 671.67 739.37 679.03 749.64 C 683.90 745.48 688.76 741.30 693.64 737.16 C 693.31 738.31 693.04 739.49 692.53 740.59 C 680.08 762.04 665.42 782.26 648.50 800.43 C 640.43 809.39 631.15 817.12 622.44 825.41 C 634.00 821.32 644.79 815.35 655.60 809.62 C 722.12 772.68 776.09 713.09 805.11 642.66 C 804.00 643.73 802.92 644.81 801.92 645.97 C 775.05 677.84 740.81 702.88 703.96 722.03 C 701.37 723.23 700.50 726.17 699.12 728.44 C 694.45 721.11 689.75 713.80 685.07 706.47 C 687.98 701.68 689.94 696.42 692.33 691.38 C 706.28 659.36 716.24 625.59 721.91 591.13 C 702.40 595.13 682.84 598.98 663.07 601.43 C 654.73 595.42 646.37 589.46 638.03 583.46 C 641.33 581.52 645.30 581.79 648.96 581.17 C 674.62 577.68 700.23 573.43 725.38 567.23 C 729.56 531.23 730.03 494.68 725.75 458.67 C 727.49 451.26 729.31 443.87 731.05 436.46 C 722.61 436.45 714.16 436.44 705.72 436.46 C 704.80 440.70 703.87 444.94 702.96 449.19 C 690.87 446.87 678.78 444.37 666.55 442.98 C 666.01 440.79 665.44 438.61 664.88 436.44 C 654.87 436.51 644.86 436.36 634.85 436.52 C 634.74 436.99 634.50 437.91 634.38 438.38 C 619.70 436.75 605.00 435.14 590.26 434.16 C 590.24 434.73 590.20 435.88 590.17 436.45 C 582.85 436.43 575.52 436.50 568.19 436.41 C 568.13 435.50 568.02 433.67 567.96 432.76 C 536.06 430.37 504.00 430.15 472.02 430.39 C 451.92 430.78 431.78 431.11 411.75 432.77 M 336.83 439.45 C 336.56 438.43 336.29 437.43 336.03 436.43 C 326.06 436.48 316.09 436.44 306.12 436.45 C 305.41 439.05 304.71 441.66 304.03 444.28 C 292.03 446.32 279.98 448.24 268.17 451.22 C 267.10 446.29 266.07 441.36 264.95 436.44 C 256.36 436.46 247.78 436.45 239.19 436.45 C 243.34 454.18 247.51 471.90 251.67 489.63 C 250.63 515.55 251.42 541.57 254.59 567.32 C 285.67 574.72 317.28 579.73 349.01 583.40 C 362.55 584.82 376.10 586.56 389.71 587.10 C 387.87 557.61 387.74 528.04 387.39 498.51 C 392.33 477.85 397.24 457.18 402.27 436.55 C 398.11 436.39 393.95 436.44 389.79 436.46 C 389.77 435.89 389.73 434.74 389.71 434.17 C 372.04 435.39 354.42 437.32 336.83 439.45 M 172.02 483.93 C 162.60 489.46 152.72 496.09 148.68 506.74 C 146.26 515.08 152.51 522.50 158.12 527.86 C 171.12 538.57 186.71 545.53 202.28 551.62 C 211.98 555.08 221.66 558.89 231.75 560.99 C 228.42 527.49 228.48 493.65 231.74 460.14 C 211.12 466.03 190.67 473.22 172.02 483.93 M 748.23 460.09 C 751.43 493.65 751.53 527.52 748.19 561.08 C 766.26 556.48 783.87 549.86 800.57 541.55 C 811.35 535.62 823.11 529.56 829.50 518.53 C 832.51 514.04 832.63 507.83 829.71 503.28 C 824.48 493.58 814.65 487.83 805.43 482.49 C 787.43 472.58 767.91 465.78 748.23 460.09 M 153.75 552.91 C 154.77 559.94 157.45 566.60 159.80 573.27 C 174.92 610.84 201.80 642.76 233.29 667.81 C 242.34 674.79 251.43 681.87 261.44 687.42 C 260.17 682.86 258.32 678.50 256.76 674.05 C 246.39 645.35 239.38 615.54 234.65 585.43 C 206.54 577.92 178.39 568.75 153.75 552.91 M 745.30 585.44 C 741.17 611.37 735.52 637.11 727.26 662.06 C 724.70 670.69 721.06 678.95 718.45 687.56 C 726.41 683.09 733.75 677.59 741.07 672.17 C 767.38 652.24 790.65 627.88 807.38 599.32 C 815.74 584.80 823.00 569.34 826.30 552.84 C 801.66 568.76 773.44 577.90 745.30 585.44 M 258.03 591.09 C 264.45 630.04 276.29 668.13 293.28 703.77 C 293.99 705.60 295.47 706.91 297.28 707.63 C 332.82 724.38 370.71 736.43 409.54 742.51 C 400.03 698.69 394.74 654.08 390.96 609.44 C 346.32 606.24 301.81 600.49 258.03 591.09 M 174.85 642.62 C 175.08 643.27 175.56 644.58 175.79 645.23 C 205.19 714.23 258.18 772.77 323.69 809.25 C 334.68 815.16 345.72 821.23 357.52 825.39 C 348.81 817.13 339.52 809.44 331.49 800.47 C 310.49 777.99 293.05 752.32 278.90 725.05 C 277.84 722.41 274.96 721.53 272.69 720.26 C 247.05 706.68 222.89 690.17 201.55 670.49 C 191.92 661.92 183.57 652.07 174.85 642.62 M 312.90 738.94 C 334.59 773.83 363.37 804.90 398.60 826.38 C 413.94 835.58 430.42 843.32 447.98 847.08 C 432.10 822.86 423.16 794.95 415.55 767.23 C 415.15 765.57 413.04 765.79 411.76 765.37 C 377.95 760.29 344.81 751.16 312.90 738.94 M 568.04 765.37 C 566.80 765.76 564.74 765.58 564.41 767.20 C 556.79 794.94 547.83 822.86 531.95 847.11 C 557.03 841.50 579.93 828.68 600.39 813.43 C 627.00 793.06 649.41 767.39 667.05 738.96 C 635.08 751.18 601.91 760.36 568.04 765.37 M 439.51 768.97 C 444.95 788.72 451.95 808.18 461.80 826.18 C 467.06 835.20 472.67 844.77 482.05 850.07 C 486.54 853.09 492.74 853.29 497.33 850.38 C 507.67 844.73 513.62 834.10 519.22 824.20 C 528.51 806.74 535.18 787.99 540.45 768.97 C 506.90 772.18 473.06 772.19 439.51 768.97 Z" />
<path fill="#454545" opacity="1.00" d=" M 569.16 441.66 C 577.06 474.87 584.88 508.10 592.56 541.37 C 592.22 544.32 591.88 547.28 591.66 550.25 C 584.42 545.03 577.14 539.85 569.90 534.64 C 570.65 525.77 570.27 516.86 570.39 507.97 C 570.37 490.48 569.98 472.98 569.28 455.50 C 568.93 450.89 568.92 446.27 569.16 441.66 Z" />
</g>
<g id="#252525ff">
<path fill="#252525" opacity="1.00" d=" M 469.69 182.69 C 473.77 176.89 479.36 171.93 486.01 169.32 C 494.16 166.98 501.42 172.91 506.76 178.33 C 516.45 189.81 522.92 203.57 528.67 217.34 C 533.19 228.79 537.41 240.41 540.40 252.36 C 506.86 249.29 473.05 249.26 439.51 252.38 C 441.58 243.86 444.54 235.58 447.43 227.31 C 453.19 211.71 459.90 196.24 469.69 182.69 Z" />
<path fill="#252525" opacity="1.00" d=" M 378.58 208.57 C 399.29 192.93 422.56 179.94 448.01 174.08 C 432.25 198.31 423.18 226.09 415.62 253.78 C 415.37 255.10 414.41 255.88 413.06 255.84 C 387.74 259.64 362.73 265.55 338.38 273.46 C 329.76 276.05 321.50 279.67 312.91 282.30 C 330.34 254.22 352.39 228.82 378.58 208.57 Z" />
<path fill="#252525" opacity="1.00" d=" M 532.01 174.11 C 549.70 178.11 566.35 185.81 581.82 195.18 C 616.82 216.63 645.39 247.58 667.00 282.26 C 658.21 279.60 649.79 275.86 640.98 273.26 C 616.13 265.11 590.53 259.48 564.73 255.36 C 557.14 227.13 547.96 198.85 532.01 174.11 Z" />
<path fill="#252525" opacity="1.00" d=" M 189.97 346.95 C 226.75 279.76 286.55 225.10 357.45 195.83 C 356.38 196.99 355.31 198.14 354.14 199.19 C 322.60 226.03 297.63 259.99 278.66 296.67 C 277.71 299.08 275.07 299.82 273.01 301.00 C 237.57 319.69 204.81 344.11 178.72 374.67 C 177.70 375.79 176.55 376.78 175.42 377.80 C 179.17 367.04 184.72 357.03 189.97 346.95 Z" />
<path fill="#252525" opacity="1.00" d=" M 622.52 195.84 C 657.31 209.98 689.28 230.77 717.38 255.62 C 746.55 281.67 771.25 312.71 790.05 347.02 C 795.28 357.05 800.84 367.03 804.53 377.75 C 801.68 375.52 799.54 372.59 797.13 369.93 C 771.91 341.75 740.99 319.03 707.67 301.35 C 705.44 300.01 702.44 299.34 701.32 296.75 C 683.42 262.14 660.22 229.97 631.14 203.87 C 628.25 201.21 625.05 198.87 622.52 195.84 Z" />
<path fill="#252525" opacity="1.00" d=" M 433.34 275.31 C 470.91 270.84 509.03 270.84 546.60 275.30 C 557.07 319.59 562.94 364.84 566.58 410.16 C 552.74 410.03 538.90 408.97 525.04 408.75 C 493.38 408.01 461.69 408.23 430.05 409.61 C 424.49 409.78 418.94 410.45 413.37 410.15 C 416.98 364.84 422.88 319.59 433.34 275.31 Z" />
<path fill="#252525" opacity="1.00" d=" M 297.01 313.94 C 332.59 297.05 370.57 285.11 409.45 278.85 C 400.19 322.70 394.55 367.23 391.06 411.89 C 352.18 414.86 313.38 419.44 275.08 426.85 C 269.38 427.88 263.77 429.37 258.02 430.08 C 264.58 390.86 276.43 352.45 293.73 316.62 C 294.31 315.22 295.76 314.60 297.01 313.94 Z" />
<path fill="#252525" opacity="1.00" d=" M 570.55 278.83 C 608.45 284.98 645.49 296.46 680.30 312.66 C 682.37 313.77 685.11 314.38 686.24 316.67 C 703.52 352.49 715.36 390.89 721.93 430.10 C 708.26 427.71 694.70 424.67 680.97 422.60 C 650.46 417.58 619.70 414.26 588.88 411.88 C 587.00 389.89 585.03 367.89 581.99 346.02 C 579.12 323.47 574.94 301.12 570.55 278.83 Z" />
<path fill="#252525" opacity="1.00" d=" M 248.33 342.39 C 252.79 339.52 256.92 336.10 261.72 333.80 C 248.88 366.66 239.94 400.99 234.70 435.87 C 206.59 443.57 178.40 452.67 153.67 468.47 C 157.10 451.88 164.38 436.32 172.82 421.72 C 191.56 389.97 218.27 363.47 248.33 342.39 Z" />
<path fill="#252525" opacity="1.00" d=" M 718.24 333.79 C 727.67 338.99 736.20 345.69 744.82 352.12 C 777.06 377.38 804.68 409.70 820.11 447.94 C 822.50 454.66 825.16 461.38 826.24 468.47 C 801.55 452.60 773.32 443.58 745.23 435.86 C 740.03 400.97 731.02 366.66 718.24 333.79 Z" />
<path fill="#252525" opacity="1.00" d=" M 411.75 432.77 C 431.78 431.11 451.92 430.78 472.02 430.39 C 504.00 430.15 536.06 430.37 567.96 432.76 C 568.02 433.67 568.13 435.50 568.19 436.41 C 568.42 438.17 568.81 439.91 569.16 441.66 C 568.92 446.27 568.93 450.89 569.28 455.50 C 569.98 472.98 570.37 490.48 570.39 507.97 C 570.27 516.86 570.65 525.77 569.90 534.64 C 562.27 529.15 554.58 523.75 547.01 518.18 C 553.65 490.96 560.09 463.70 566.64 436.46 C 558.21 436.44 549.77 436.46 541.33 436.45 C 534.99 465.47 528.73 494.50 522.38 523.51 C 515.06 494.50 507.80 465.48 500.49 436.46 C 490.50 436.45 480.50 436.45 470.51 436.46 C 462.95 465.00 455.44 493.55 447.87 522.08 C 441.68 493.55 435.56 465.00 429.38 436.46 C 423.50 436.44 417.62 436.46 411.74 436.45 C 411.74 435.53 411.75 433.69 411.75 432.77 Z" />
<path fill="#252525" opacity="1.00" d=" M 336.83 439.45 C 354.42 437.32 372.04 435.39 389.71 434.17 C 389.73 434.74 389.77 435.89 389.79 436.46 C 385.50 436.45 381.22 436.46 376.93 436.45 C 370.56 465.42 364.39 494.42 357.97 523.38 C 350.83 495.42 343.91 467.42 336.83 439.45 Z" />
<path fill="#252525" opacity="1.00" d=" M 590.26 434.16 C 605.00 435.14 619.70 436.75 634.38 438.38 C 627.05 466.29 619.67 494.19 612.27 522.09 C 606.09 493.54 599.97 464.99 593.78 436.45 C 592.57 436.45 591.37 436.45 590.17 436.45 C 590.20 435.88 590.24 434.73 590.26 434.16 Z" />
<path fill="#252525" opacity="1.00" d=" M 666.55 442.98 C 678.78 444.37 690.87 446.87 702.96 449.19 C 697.57 473.96 692.20 498.74 686.79 523.51 C 680.01 496.68 673.28 469.83 666.55 442.98 Z" />
<path fill="#252525" opacity="1.00" d=" M 268.17 451.22 C 279.98 448.24 292.03 446.32 304.03 444.28 C 297.17 470.21 290.35 496.15 283.45 522.07 C 278.34 498.46 273.25 474.84 268.17 451.22 Z" />
<path fill="#252525" opacity="1.00" d=" M 701.14 561.18 C 709.38 527.02 717.51 492.83 725.75 458.67 C 730.03 494.68 729.56 531.23 725.38 567.23 C 700.23 573.43 674.62 577.68 648.96 581.17 C 645.30 581.79 641.33 581.52 638.03 583.46 C 627.66 576.05 617.30 568.63 606.95 561.19 C 612.90 561.17 618.84 561.19 624.79 561.17 C 633.01 530.12 641.21 499.06 649.42 468.00 C 657.75 499.04 665.97 530.11 674.26 561.17 C 683.22 561.20 692.18 561.17 701.14 561.18 Z" />
<path fill="#252525" opacity="1.00" d=" M 172.02 483.93 C 190.67 473.22 211.12 466.03 231.74 460.14 C 228.48 493.65 228.42 527.49 231.75 560.99 C 221.66 558.89 211.98 555.08 202.28 551.62 C 186.71 545.53 171.12 538.57 158.12 527.86 C 152.51 522.50 146.26 515.08 148.68 506.74 C 152.72 496.09 162.60 489.46 172.02 483.93 Z" />
<path fill="#252525" opacity="1.00" d=" M 748.23 460.09 C 767.91 465.78 787.43 472.58 805.43 482.49 C 814.65 487.83 824.48 493.58 829.71 503.28 C 832.63 507.83 832.51 514.04 829.50 518.53 C 823.11 529.56 811.35 535.62 800.57 541.55 C 783.87 549.86 766.26 556.48 748.19 561.08 C 751.53 527.52 751.43 493.65 748.23 460.09 Z" />
<path fill="#252525" opacity="1.00" d=" M 410.61 466.47 C 418.10 498.02 425.43 529.61 432.89 561.18 C 442.05 561.19 451.21 561.18 460.37 561.18 C 468.65 530.22 476.65 499.18 485.03 468.24 C 493.45 499.18 501.54 530.21 509.87 561.18 C 518.83 561.18 527.79 561.19 536.75 561.17 C 539.24 550.88 541.66 540.57 544.18 530.29 C 548.92 549.91 553.60 569.55 558.30 589.18 C 536.92 590.81 515.44 590.92 494.01 591.13 C 466.64 591.16 439.26 590.58 411.94 588.81 C 409.97 560.24 409.48 531.57 409.59 502.94 C 409.82 490.78 409.45 478.57 410.61 466.47 Z" />
<path fill="#252525" opacity="1.00" d=" M 295.98 561.17 C 304.21 530.12 312.36 499.05 320.63 468.00 C 328.90 499.05 337.18 530.10 345.43 561.16 C 354.40 561.21 363.36 561.17 372.32 561.18 C 377.39 540.30 382.32 519.39 387.39 498.51 C 387.74 528.04 387.87 557.61 389.71 587.10 C 376.10 586.56 362.55 584.82 349.01 583.40 C 317.28 579.73 285.67 574.72 254.59 567.32 C 251.42 541.57 250.63 515.55 251.67 489.63 C 257.28 513.47 262.87 537.32 268.47 561.16 C 277.64 561.20 286.81 561.18 295.98 561.17 Z" />
<path fill="#252525" opacity="1.00" d=" M 592.56 541.37 C 593.51 545.18 594.47 549.00 595.32 552.85 C 594.08 551.97 592.87 551.12 591.66 550.25 C 591.88 547.28 592.22 544.32 592.56 541.37 Z" />
<path fill="#252525" opacity="1.00" d=" M 153.75 552.91 C 178.39 568.75 206.54 577.92 234.65 585.43 C 239.38 615.54 246.39 645.35 256.76 674.05 C 258.32 678.50 260.17 682.86 261.44 687.42 C 251.43 681.87 242.34 674.79 233.29 667.81 C 201.80 642.76 174.92 610.84 159.80 573.27 C 157.45 566.60 154.77 559.94 153.75 552.91 Z" />
<path fill="#252525" opacity="1.00" d=" M 745.30 585.44 C 773.44 577.90 801.66 568.76 826.30 552.84 C 823.00 569.34 815.74 584.80 807.38 599.32 C 790.65 627.88 767.38 652.24 741.07 672.17 C 733.75 677.59 726.41 683.09 718.45 687.56 C 721.06 678.95 724.70 670.69 727.26 662.06 C 735.52 637.11 741.17 611.37 745.30 585.44 Z" />
<path fill="#252525" opacity="1.00" d=" M 258.03 591.09 C 301.81 600.49 346.32 606.24 390.96 609.44 C 394.74 654.08 400.03 698.69 409.54 742.51 C 370.71 736.43 332.82 724.38 297.28 707.63 C 295.47 706.91 293.99 705.60 293.28 703.77 C 276.29 668.13 264.45 630.04 258.03 591.09 Z" />
<path fill="#252525" opacity="1.00" d=" M 663.07 601.43 C 682.84 598.98 702.40 595.13 721.91 591.13 C 716.24 625.59 706.28 659.36 692.33 691.38 C 689.94 696.42 687.98 701.68 685.07 706.47 C 674.07 689.31 663.09 672.13 652.10 654.96 C 670.32 647.54 688.56 640.18 706.78 632.76 C 692.22 622.30 677.64 611.87 663.07 601.43 Z" />
<path fill="#252525" opacity="1.00" d=" M 413.33 611.11 C 463.36 613.53 513.53 613.94 563.56 611.11 C 564.48 615.02 565.50 618.92 566.32 622.86 C 564.73 627.39 564.81 632.22 564.25 636.93 C 560.54 673.58 555.04 710.08 546.65 745.96 C 527.89 748.63 508.88 749.30 489.94 749.45 C 471.03 749.31 452.04 748.60 433.30 745.97 C 422.90 701.67 417.02 656.43 413.33 611.11 Z" />
<path fill="#252525" opacity="1.00" d=" M 174.85 642.62 C 183.57 652.07 191.92 661.92 201.55 670.49 C 222.89 690.17 247.05 706.68 272.69 720.26 C 274.96 721.53 277.84 722.41 278.90 725.05 C 293.05 752.32 310.49 777.99 331.49 800.47 C 339.52 809.44 348.81 817.13 357.52 825.39 C 345.72 821.23 334.68 815.16 323.69 809.25 C 258.18 772.77 205.19 714.23 175.79 645.23 C 175.56 644.58 175.08 643.27 174.85 642.62 Z" />
<path fill="#252525" opacity="1.00" d=" M 801.92 645.97 C 802.92 644.81 804.00 643.73 805.11 642.66 C 776.09 713.09 722.12 772.68 655.60 809.62 C 644.79 815.35 634.00 821.32 622.44 825.41 C 631.15 817.12 640.43 809.39 648.50 800.43 C 665.42 782.26 680.08 762.04 692.53 740.59 C 693.04 739.49 693.31 738.31 693.64 737.16 C 696.01 735.10 698.39 733.07 700.77 731.04 C 700.21 730.16 699.67 729.30 699.12 728.44 C 700.50 726.17 701.37 723.23 703.96 722.03 C 740.81 702.88 775.05 677.84 801.92 645.97 Z" />
<path fill="#252525" opacity="1.00" d=" M 597.15 736.92 C 606.93 716.72 616.78 696.55 626.62 676.38 C 636.75 690.52 646.86 704.66 656.98 718.81 C 639.39 725.77 621.29 731.37 602.97 736.02 C 601.06 736.48 599.08 736.67 597.15 736.92 Z" />
<path fill="#252525" opacity="1.00" d=" M 579.86 690.05 C 580.01 688.36 580.53 686.76 581.29 685.26 C 585.59 702.83 589.73 720.45 593.98 738.03 C 586.18 739.69 578.39 741.75 570.44 742.46 C 573.97 725.06 577.40 707.63 579.86 690.05 Z" />
<path fill="#252525" opacity="1.00" d=" M 312.90 738.94 C 344.81 751.16 377.95 760.29 411.76 765.37 C 413.04 765.79 415.15 765.57 415.55 767.23 C 423.16 794.95 432.10 822.86 447.98 847.08 C 430.42 843.32 413.94 835.58 398.60 826.38 C 363.37 804.90 334.59 773.83 312.90 738.94 Z" />
<path fill="#252525" opacity="1.00" d=" M 568.04 765.37 C 601.91 760.36 635.08 751.18 667.05 738.96 C 649.41 767.39 627.00 793.06 600.39 813.43 C 579.93 828.68 557.03 841.50 531.95 847.11 C 547.83 822.86 556.79 794.94 564.41 767.20 C 564.74 765.58 566.80 765.76 568.04 765.37 Z" />
<path fill="#252525" opacity="1.00" d=" M 439.51 768.97 C 473.06 772.19 506.90 772.18 540.45 768.97 C 535.18 787.99 528.51 806.74 519.22 824.20 C 513.62 834.10 507.67 844.73 497.33 850.38 C 492.74 853.29 486.54 853.09 482.05 850.07 C 472.67 844.77 467.06 835.20 461.80 826.18 C 451.95 808.18 444.95 788.72 439.51 768.97 Z" />
</g>
</svg>
