<?xml version="1.0" encoding="UTF-8" ?>
<!DOCTYPE svg PUBLIC "-//W3C//DTD SVG 1.1//EN" "http://www.w3.org/Graphics/SVG/1.1/DTD/svg11.dtd">
<svg width="1024pt" height="1024pt" viewBox="0 0 1024 1024" version="1.1" xmlns="http://www.w3.org/2000/svg">
<g id="#454545ff">
<path fill="#454545" opacity="1.00" d=" M 535.39 144.51 C 580.39 142.36 625.84 148.22 668.59 162.53 C 737.07 185.04 798.33 228.65 842.34 285.70 C 885.42 341.04 911.94 409.13 917.35 479.06 C 922.53 541.46 911.32 605.17 884.82 661.91 C 862.66 709.75 829.90 752.62 789.67 786.70 C 751.35 819.27 706.21 843.82 657.98 858.12 C 585.47 879.75 506.17 878.09 434.72 853.14 C 364.48 828.95 302.22 782.45 258.76 722.24 C 236.82 692.03 219.55 658.41 207.89 622.94 C 179.41 537.52 184.19 441.47 221.44 359.45 C 254.75 284.80 314.10 222.16 386.77 184.76 C 432.64 160.82 483.75 147.20 535.39 144.51 M 546.16 169.14 C 536.58 174.56 530.88 184.36 525.57 193.61 C 515.87 211.50 508.93 230.80 503.52 250.38 C 537.10 247.21 570.96 247.22 604.54 250.38 C 599.15 230.78 592.20 211.47 582.49 193.56 C 577.17 184.35 571.48 174.58 561.95 169.15 C 557.29 166.02 550.81 165.98 546.16 169.14 M 473.03 186.96 C 433.02 208.31 400.73 242.17 376.88 280.39 C 391.68 275.14 406.43 269.66 421.63 265.66 C 440.54 260.28 459.87 256.50 479.26 253.35 C 486.91 225.12 495.98 196.72 512.10 172.04 C 498.46 175.15 485.37 180.41 473.03 186.96 M 595.92 172.01 C 611.84 196.21 620.78 224.11 628.43 251.81 C 628.73 254.10 631.35 253.72 633.04 254.17 C 666.61 259.13 699.41 268.43 731.14 280.35 C 709.64 245.78 681.21 214.96 646.42 193.47 C 630.76 183.91 613.86 176.12 595.92 172.01 M 397.73 204.75 C 330.39 239.29 275.22 296.89 243.62 365.66 C 242.04 369.03 240.44 372.41 239.36 376.00 C 244.19 371.60 248.05 366.27 252.66 361.66 C 276.98 336.21 305.90 315.40 336.99 299.02 C 339.06 297.84 341.67 297.07 342.69 294.70 C 360.51 260.31 383.51 228.30 412.35 202.29 C 415.46 199.43 418.83 196.86 421.71 193.76 C 413.44 196.77 405.55 200.75 397.73 204.75 M 686.34 193.72 C 695.59 202.40 705.30 210.65 713.78 220.13 C 728.50 236.11 741.51 253.64 752.75 272.22 C 757.77 280.03 761.76 288.47 766.56 296.39 C 778.25 302.91 790.10 309.27 801.23 316.77 C 813.66 325.14 825.98 333.85 836.90 344.15 C 835.57 344.36 834.24 344.58 832.93 344.80 C 825.86 345.54 818.59 348.85 814.79 355.10 C 804.71 346.34 793.75 338.49 782.28 331.66 C 795.07 364.59 804.08 398.93 809.32 433.85 C 837.47 441.52 865.69 450.65 890.44 466.48 C 887.62 453.02 882.27 440.21 875.90 428.07 C 868.79 414.80 860.49 402.09 850.68 390.66 C 856.41 384.84 861.28 377.57 862.16 369.27 C 864.56 371.74 866.78 374.38 869.04 376.97 C 867.35 371.25 864.95 365.63 861.64 360.65 C 860.78 358.05 859.56 355.56 857.97 353.34 C 856.67 348.89 854.11 344.99 851.86 341.00 C 833.67 308.64 810.04 279.38 782.49 254.52 C 754.08 229.19 721.67 208.02 686.34 193.72 M 497.36 273.32 C 487.08 317.69 480.78 362.97 477.59 408.37 C 513.03 406.48 548.54 405.85 584.02 406.62 C 599.59 406.75 615.13 407.94 630.68 408.14 C 626.99 362.82 621.14 317.56 610.68 273.26 C 573.09 268.87 534.94 268.74 497.36 273.32 M 360.93 311.97 C 357.48 313.23 356.69 317.14 355.19 320.07 C 339.29 354.40 328.29 390.94 322.05 428.24 C 365.90 418.94 410.45 413.20 455.14 409.86 C 457.67 378.78 460.92 347.74 466.03 316.96 C 468.09 303.49 471.03 290.17 473.45 276.77 C 434.56 283.17 396.53 295.02 360.93 311.97 M 634.53 276.73 C 643.82 320.60 649.47 365.15 652.92 409.84 C 697.61 413.20 742.15 418.96 786.02 428.19 C 779.44 388.96 767.63 350.53 750.32 314.70 C 749.81 313.55 748.82 312.80 747.74 312.27 C 711.97 295.07 673.66 283.22 634.53 276.73 M 238.25 417.40 C 229.16 432.69 221.38 449.04 217.68 466.54 C 242.37 450.63 270.62 441.55 298.75 433.88 C 303.99 398.94 313.03 364.58 325.79 331.63 C 290.82 353.27 259.78 382.15 238.25 417.40 M 475.81 430.76 C 475.80 431.68 475.78 433.51 475.78 434.42 C 473.07 434.42 470.36 434.42 467.66 434.44 C 470.00 444.43 472.38 454.41 474.68 464.42 C 473.52 476.58 473.89 488.84 473.64 501.05 C 473.54 529.64 474.07 558.25 476.00 586.78 C 524.73 589.67 573.65 589.98 622.39 587.24 C 624.14 594.52 625.88 601.80 627.63 609.09 C 577.60 611.87 527.44 611.52 477.41 609.07 C 481.05 654.39 487.02 699.60 497.33 743.91 C 499.52 744.29 501.71 744.69 503.94 744.90 C 539.41 748.32 575.32 748.50 610.70 743.97 C 619.18 707.80 624.70 670.99 628.41 634.05 C 628.90 629.62 628.87 625.07 630.42 620.83 C 635.36 641.34 640.29 661.86 645.17 682.39 C 643.58 688.15 643.21 694.14 642.09 700.00 C 639.94 713.60 637.20 727.09 634.46 740.57 C 642.41 739.55 650.23 737.74 658.05 736.02 C 658.26 736.90 658.69 738.66 658.90 739.54 C 659.66 738.01 660.42 736.49 661.17 734.96 C 663.12 734.67 665.09 734.42 667.02 733.98 C 685.37 729.39 703.45 723.70 721.05 716.79 C 728.40 727.06 735.74 737.34 743.10 747.60 C 747.99 743.44 752.85 739.24 757.76 735.10 C 757.32 736.49 756.91 737.91 756.24 739.22 C 742.95 761.86 727.34 783.22 709.04 802.08 C 701.95 809.73 693.81 816.27 686.33 823.50 C 697.68 819.37 708.35 813.61 719.00 807.97 C 785.84 771.02 840.11 711.26 869.19 640.55 C 864.66 645.25 860.57 650.35 856.07 655.07 C 831.01 681.49 800.96 702.87 768.71 719.62 C 765.76 720.78 764.61 723.87 763.21 726.43 C 758.60 719.22 754.00 712.02 749.38 704.83 C 750.23 702.88 751.09 700.94 751.98 699.02 C 768.38 664.20 779.67 627.02 786.00 589.08 C 766.65 593.33 747.09 596.43 727.57 599.69 C 718.78 593.40 710.00 587.09 701.21 580.81 C 730.80 576.84 760.37 572.30 789.42 565.30 C 793.51 531.70 793.75 497.65 790.77 463.94 C 790.64 461.97 790.01 460.07 789.48 458.19 C 791.30 450.26 793.25 442.35 795.13 434.43 C 786.68 434.42 778.23 434.42 769.79 434.43 C 768.86 438.67 767.94 442.91 767.03 447.16 C 754.94 444.83 742.86 442.33 730.62 440.95 C 730.07 438.77 729.52 436.60 728.97 434.43 C 718.98 434.43 708.99 434.41 699.00 434.43 L 698.64 435.77 C 693.36 436.17 688.15 435.10 682.92 434.66 C 673.40 433.72 663.88 432.69 654.32 432.15 C 654.30 432.72 654.24 433.86 654.21 434.43 C 646.90 434.40 639.58 434.47 632.27 434.38 C 632.22 433.46 632.12 431.61 632.07 430.69 C 598.78 428.34 565.36 428.02 531.99 428.42 C 513.26 428.88 494.48 429.14 475.81 430.76 M 400.90 437.39 C 400.72 436.65 400.35 435.17 400.17 434.43 C 390.17 434.41 380.17 434.43 370.17 434.42 C 369.46 437.09 368.74 439.75 368.05 442.42 C 356.01 444.06 344.05 446.38 332.22 449.13 C 331.17 444.22 330.11 439.32 329.04 434.42 C 320.45 434.43 311.85 434.41 303.26 434.43 C 307.36 451.91 311.45 469.39 315.58 486.87 C 314.97 513.02 315.28 539.27 318.69 565.24 C 362.99 575.82 408.30 581.69 453.66 585.24 C 453.15 571.16 452.35 557.08 452.07 542.99 C 451.54 527.52 451.92 512.03 451.44 496.57 C 456.36 475.85 461.36 455.14 466.32 434.43 C 462.15 434.42 457.99 434.42 453.83 434.43 C 453.81 433.85 453.77 432.69 453.74 432.11 C 436.08 433.35 418.48 435.31 400.90 437.39 M 229.84 485.80 C 222.98 490.14 216.72 495.87 213.29 503.36 C 211.32 507.80 212.20 513.10 214.91 517.04 C 220.35 526.33 229.96 531.89 239.02 537.12 C 256.91 546.81 276.20 553.79 295.79 559.16 C 292.56 525.57 292.54 491.68 295.81 458.09 C 272.89 464.75 249.97 472.72 229.84 485.80 M 812.27 458.12 C 815.54 491.66 815.58 525.52 812.26 559.07 C 823.31 556.48 834.00 552.49 844.61 548.48 C 859.39 542.53 874.17 535.73 886.43 525.39 C 891.67 520.19 897.44 513.27 895.54 505.33 C 892.25 495.56 883.64 488.99 875.18 483.80 C 855.74 471.96 834.06 464.32 812.27 458.12 M 217.64 550.75 C 222.10 571.27 231.77 590.28 243.21 607.75 C 264.50 639.62 293.65 665.69 325.98 685.99 C 313.05 652.96 304.12 618.45 298.70 583.42 C 270.54 575.83 242.30 566.70 217.64 550.75 M 809.37 583.43 C 806.11 603.37 802.21 623.25 796.59 642.69 C 792.74 657.27 787.36 671.36 782.45 685.60 C 786.77 683.32 790.70 680.41 794.74 677.69 C 818.60 661.07 840.35 641.17 857.79 617.84 C 872.59 597.74 885.06 575.28 890.48 550.74 C 865.82 566.71 837.54 575.84 809.37 583.43 M 322.06 589.08 C 328.26 626.03 339.12 662.24 354.80 696.28 C 356.07 698.92 357.01 701.81 358.89 704.12 C 360.70 705.46 362.84 706.26 364.87 707.21 C 399.34 723.24 436.06 734.42 473.56 740.60 C 467.21 709.98 462.27 679.08 458.94 647.99 C 457.31 634.49 456.57 620.89 454.99 607.40 C 410.35 604.23 365.85 598.41 322.06 589.08 M 238.85 640.53 C 265.84 706.03 314.38 762.22 374.57 799.46 C 389.66 808.58 405.20 817.19 421.70 823.49 C 420.52 822.27 419.35 821.07 418.09 819.95 C 387.86 794.24 363.73 761.92 345.08 727.02 C 343.52 724.32 342.55 720.84 339.38 719.59 C 307.75 703.19 278.28 682.29 253.50 656.60 C 248.41 651.43 243.96 645.67 238.85 640.53 M 376.91 736.88 C 398.68 771.74 427.41 802.88 462.68 824.36 C 478.03 833.58 494.54 841.25 512.10 845.11 C 496.19 820.88 487.23 792.96 479.62 765.22 C 479.30 763.59 477.23 763.74 475.99 763.35 C 442.10 758.30 408.89 749.14 376.91 736.88 M 628.91 763.93 C 621.01 792.05 612.19 820.50 595.99 845.12 C 625.48 838.32 652.03 822.21 675.01 802.91 C 697.02 784.03 715.87 761.53 731.14 736.91 C 698.18 749.63 663.85 758.73 628.91 763.93 M 503.56 766.96 C 509.02 786.65 515.98 806.07 525.82 824.03 C 531.06 833.08 536.69 842.68 546.06 848.01 C 550.56 851.01 556.74 851.28 561.36 848.38 C 571.89 842.63 577.88 831.74 583.57 821.66 C 592.68 804.34 599.30 785.79 604.52 766.96 C 570.96 770.15 537.12 770.15 503.56 766.96 Z" />
<path fill="#454545" opacity="1.00" d=" M 826.47 365.21 C 827.67 356.29 841.02 354.18 845.62 361.40 C 849.05 367.51 846.20 375.06 841.62 379.72 C 836.47 374.98 831.81 369.74 826.47 365.21 Z" />
<path fill="#454545" opacity="1.00" d=" M 633.08 448.02 C 633.06 445.70 633.36 443.41 633.56 441.11 C 641.32 473.53 648.90 506.00 656.44 538.48 C 656.22 541.73 655.92 544.97 655.73 548.22 C 648.52 543.02 641.28 537.87 634.07 532.68 C 634.95 504.47 634.29 476.21 633.08 448.02 Z" />
</g>
<g id="#252525ff">
<path fill="#252525" opacity="1.00" d=" M 546.16 169.14 C 550.81 165.98 557.29 166.02 561.95 169.15 C 571.48 174.58 577.17 184.35 582.49 193.56 C 592.20 211.47 599.15 230.78 604.54 250.38 C 570.96 247.22 537.10 247.21 503.52 250.38 C 508.93 230.80 515.87 211.50 525.57 193.61 C 530.88 184.36 536.58 174.56 546.16 169.14 Z" />
<path fill="#252525" opacity="1.00" d=" M 473.03 186.96 C 485.37 180.41 498.46 175.15 512.10 172.04 C 495.98 196.72 486.91 225.12 479.26 253.35 C 459.87 256.50 440.54 260.28 421.63 265.66 C 406.43 269.66 391.68 275.14 376.88 280.39 C 400.73 242.17 433.02 208.31 473.03 186.96 Z" />
<path fill="#252525" opacity="1.00" d=" M 595.92 172.01 C 613.86 176.12 630.76 183.91 646.42 193.47 C 681.21 214.96 709.64 245.78 731.14 280.35 C 699.41 268.43 666.61 259.13 633.04 254.17 C 631.35 253.72 628.73 254.10 628.43 251.81 C 620.78 224.11 611.84 196.21 595.92 172.01 Z" />
<path fill="#252525" opacity="1.00" d=" M 397.73 204.75 C 405.55 200.75 413.44 196.77 421.71 193.76 C 418.83 196.86 415.46 199.43 412.35 202.29 C 383.51 228.30 360.51 260.31 342.69 294.70 C 341.67 297.07 339.06 297.84 336.99 299.02 C 305.90 315.40 276.98 336.21 252.66 361.66 C 248.05 366.27 244.19 371.60 239.36 376.00 C 240.44 372.41 242.04 369.03 243.62 365.66 C 275.22 296.89 330.39 239.29 397.73 204.75 Z" />
<path fill="#252525" opacity="1.00" d=" M 686.34 193.72 C 721.67 208.02 754.08 229.19 782.49 254.52 C 810.04 279.38 833.67 308.64 851.86 341.00 C 854.11 344.99 856.67 348.89 857.97 353.34 C 852.06 345.92 841.97 343.72 832.93 344.80 C 834.24 344.58 835.57 344.36 836.90 344.15 C 825.98 333.85 813.66 325.14 801.23 316.77 C 790.10 309.27 778.25 302.91 766.56 296.39 C 761.76 288.47 757.77 280.03 752.75 272.22 C 741.51 253.64 728.50 236.11 713.78 220.13 C 705.30 210.65 695.59 202.40 686.34 193.72 Z" />
<path fill="#252525" opacity="1.00" d=" M 497.36 273.32 C 534.94 268.74 573.09 268.87 610.68 273.26 C 621.14 317.56 626.99 362.82 630.68 408.14 C 615.13 407.94 599.59 406.75 584.02 406.62 C 548.54 405.85 513.03 406.48 477.59 408.37 C 480.78 362.97 487.08 317.69 497.36 273.32 Z" />
<path fill="#252525" opacity="1.00" d=" M 360.93 311.97 C 396.53 295.02 434.56 283.17 473.45 276.77 C 471.03 290.17 468.09 303.49 466.03 316.96 C 460.92 347.74 457.67 378.78 455.14 409.86 C 410.45 413.20 365.90 418.94 322.05 428.24 C 328.29 390.94 339.29 354.40 355.19 320.07 C 356.69 317.14 357.48 313.23 360.93 311.97 Z" />
<path fill="#252525" opacity="1.00" d=" M 634.53 276.73 C 673.66 283.22 711.97 295.07 747.74 312.27 C 748.82 312.80 749.81 313.55 750.32 314.70 C 767.63 350.53 779.44 388.96 786.02 428.19 C 742.15 418.96 697.61 413.20 652.92 409.84 C 649.47 365.15 643.82 320.60 634.53 276.73 Z" />
<path fill="#252525" opacity="1.00" d=" M 238.25 417.40 C 259.78 382.15 290.82 353.27 325.79 331.63 C 313.03 364.58 303.99 398.94 298.75 433.88 C 270.62 441.55 242.37 450.63 217.68 466.54 C 221.38 449.04 229.16 432.69 238.25 417.40 Z" />
<path fill="#252525" opacity="1.00" d=" M 782.28 331.66 C 793.75 338.49 804.71 346.34 814.79 355.10 C 812.48 358.99 811.50 363.45 810.79 367.86 C 815.77 368.39 820.75 368.87 825.73 369.38 C 825.95 367.99 826.19 366.60 826.47 365.21 C 831.81 369.74 836.47 374.98 841.62 379.72 C 832.95 388.99 822.58 396.74 815.30 407.25 C 811.92 412.08 810.12 417.79 809.15 423.56 C 826.85 423.62 844.55 423.59 862.25 423.58 C 862.25 418.92 862.25 414.25 862.25 409.59 C 852.16 409.55 842.07 409.67 831.99 409.53 C 837.18 402.27 844.53 397.03 850.68 390.66 C 860.49 402.09 868.79 414.80 875.90 428.07 C 882.27 440.21 887.62 453.02 890.44 466.48 C 865.69 450.65 837.47 441.52 809.32 433.85 C 804.08 398.93 795.07 364.59 782.28 331.66 Z" />
<path fill="#252525" opacity="1.00" d=" M 861.64 360.65 C 864.95 365.63 867.35 371.25 869.04 376.97 C 866.78 374.38 864.56 371.74 862.16 369.27 C 862.30 366.39 862.09 363.49 861.64 360.65 Z" />
<path fill="#252525" opacity="1.00" d=" M 475.81 430.76 C 494.48 429.14 513.26 428.88 531.99 428.42 C 565.36 428.02 598.78 428.34 632.07 430.69 C 632.12 431.61 632.22 433.46 632.27 434.38 C 632.57 436.64 633.11 438.86 633.56 441.11 C 633.36 443.41 633.06 445.70 633.08 448.02 C 634.29 476.21 634.95 504.47 634.07 532.68 C 626.41 527.22 618.79 521.71 611.12 516.26 C 617.61 488.98 624.20 461.71 630.71 434.43 C 622.27 434.42 613.83 434.43 605.39 434.43 C 599.06 463.45 592.80 492.49 586.44 521.50 C 579.14 492.48 571.86 463.45 564.57 434.43 C 554.57 434.43 544.57 434.42 534.58 434.43 C 527.02 462.96 519.52 491.51 511.94 520.03 C 505.74 491.51 499.63 462.96 493.45 434.43 C 487.56 434.42 481.67 434.43 475.78 434.42 C 475.78 433.51 475.80 431.68 475.81 430.76 Z" />
<path fill="#252525" opacity="1.00" d=" M 400.90 437.39 C 418.48 435.31 436.08 433.35 453.74 432.11 C 453.77 432.69 453.81 433.85 453.83 434.43 C 449.55 434.42 445.27 434.43 441.00 434.43 C 434.64 463.43 428.41 492.46 422.04 521.46 C 414.96 493.44 407.95 465.41 400.90 437.39 Z" />
<path fill="#252525" opacity="1.00" d=" M 654.32 432.15 C 663.88 432.69 673.40 433.72 682.92 434.66 C 688.15 435.10 693.36 436.17 698.64 435.77 C 691.18 463.86 683.81 491.97 676.34 520.05 C 670.16 491.51 664.03 462.96 657.86 434.43 C 656.64 434.42 655.42 434.42 654.21 434.43 C 654.24 433.86 654.30 432.72 654.32 432.15 Z" />
<path fill="#252525" opacity="1.00" d=" M 730.62 440.95 C 742.86 442.33 754.94 444.83 767.03 447.16 C 761.64 471.93 756.28 496.70 750.86 521.47 C 744.08 494.64 737.36 467.79 730.62 440.95 Z" />
<path fill="#252525" opacity="1.00" d=" M 332.22 449.13 C 344.05 446.38 356.01 444.06 368.05 442.42 C 361.22 468.30 354.39 494.18 347.53 520.05 C 342.40 496.41 337.32 472.77 332.22 449.13 Z" />
<path fill="#252525" opacity="1.00" d=" M 229.84 485.80 C 249.97 472.72 272.89 464.75 295.81 458.09 C 292.54 491.68 292.56 525.57 295.79 559.16 C 276.20 553.79 256.91 546.81 239.02 537.12 C 229.96 531.89 220.35 526.33 214.91 517.04 C 212.20 513.10 211.32 507.80 213.29 503.36 C 216.72 495.87 222.98 490.14 229.84 485.80 Z" />
<path fill="#252525" opacity="1.00" d=" M 812.27 458.12 C 834.06 464.32 855.74 471.96 875.18 483.80 C 883.64 488.99 892.25 495.56 895.54 505.33 C 897.44 513.27 891.67 520.19 886.43 525.39 C 874.17 535.73 859.39 542.53 844.61 548.48 C 834.00 552.49 823.31 556.48 812.26 559.07 C 815.58 525.52 815.54 491.66 812.27 458.12 Z" />
<path fill="#252525" opacity="1.00" d=" M 765.22 559.15 C 773.34 525.51 781.30 491.82 789.48 458.19 C 790.01 460.07 790.64 461.97 790.77 463.94 C 793.75 497.65 793.51 531.70 789.42 565.30 C 760.37 572.30 730.80 576.84 701.21 580.81 C 691.14 573.60 681.08 566.38 671.02 559.16 C 676.96 559.14 682.91 559.16 688.86 559.15 C 697.09 528.09 705.25 497.01 713.51 465.96 C 721.79 497.02 730.06 528.08 738.33 559.14 C 747.29 559.16 756.25 559.15 765.22 559.15 Z" />
<path fill="#252525" opacity="1.00" d=" M 474.68 464.42 C 482.17 495.98 489.50 527.58 496.96 559.15 C 506.12 559.16 515.28 559.15 524.44 559.16 C 532.69 528.10 540.85 497.02 549.09 465.95 C 557.40 497.01 565.64 528.09 573.93 559.15 C 582.89 559.15 591.85 559.16 600.81 559.15 C 603.31 548.84 605.75 538.52 608.24 528.21 C 612.98 547.88 617.68 567.56 622.39 587.24 C 573.65 589.98 524.73 589.67 476.00 586.78 C 474.07 558.25 473.54 529.64 473.64 501.05 C 473.89 488.84 473.52 476.58 474.68 464.42 Z" />
<path fill="#252525" opacity="1.00" d=" M 384.69 465.94 C 392.70 496.08 400.79 526.20 408.73 556.36 C 409.25 557.31 409.15 559.51 410.80 559.12 C 419.35 559.21 427.92 559.18 436.47 559.07 C 441.39 538.22 446.42 517.39 451.44 496.57 C 451.92 512.03 451.54 527.52 452.07 542.99 C 452.35 557.08 453.15 571.16 453.66 585.24 C 408.30 581.69 362.99 575.82 318.69 565.24 C 315.28 539.27 314.97 513.02 315.58 486.87 C 321.22 510.96 326.89 535.05 332.54 559.14 C 341.71 559.17 350.87 559.15 360.04 559.15 C 368.27 528.08 376.45 497.00 384.69 465.94 Z" />
<path fill="#252525" opacity="1.00" d=" M 656.44 538.48 C 657.44 542.59 658.47 546.69 659.40 550.82 C 658.16 549.94 656.95 549.09 655.73 548.22 C 655.92 544.97 656.22 541.73 656.44 538.48 Z" />
<path fill="#252525" opacity="1.00" d=" M 217.64 550.75 C 242.30 566.70 270.54 575.83 298.70 583.42 C 304.12 618.45 313.05 652.96 325.98 685.99 C 293.65 665.69 264.50 639.62 243.21 607.75 C 231.77 590.28 222.10 571.27 217.64 550.75 Z" />
<path fill="#252525" opacity="1.00" d=" M 809.37 583.43 C 837.54 575.84 865.82 566.71 890.48 550.74 C 885.06 575.28 872.59 597.74 857.79 617.84 C 840.35 641.17 818.60 661.07 794.74 677.69 C 790.70 680.41 786.77 683.32 782.45 685.60 C 787.36 671.36 792.74 657.27 796.59 642.69 C 802.21 623.25 806.11 603.37 809.37 583.43 Z" />
<path fill="#252525" opacity="1.00" d=" M 322.06 589.08 C 365.85 598.41 410.35 604.23 454.99 607.40 C 456.57 620.89 457.31 634.49 458.94 647.99 C 462.27 679.08 467.21 709.98 473.56 740.60 C 436.06 734.42 399.34 723.24 364.87 707.21 C 362.84 706.26 360.70 705.46 358.89 704.12 C 357.01 701.81 356.07 698.92 354.80 696.28 C 339.12 662.24 328.26 626.03 322.06 589.08 Z" />
<path fill="#252525" opacity="1.00" d=" M 727.57 599.69 C 747.09 596.43 766.65 593.33 786.00 589.08 C 779.67 627.02 768.38 664.20 751.98 699.02 C 751.09 700.94 750.23 702.88 749.38 704.83 C 738.31 687.52 727.23 670.23 716.17 652.93 C 734.39 645.51 752.64 638.15 770.85 630.72 C 756.43 620.37 741.99 610.05 727.57 599.69 Z" />
<path fill="#252525" opacity="1.00" d=" M 477.41 609.07 C 527.44 611.52 577.60 611.87 627.63 609.09 C 628.57 612.99 629.51 616.90 630.42 620.83 C 628.87 625.07 628.90 629.62 628.41 634.05 C 624.70 670.99 619.18 707.80 610.70 743.97 C 575.32 748.50 539.41 748.32 503.94 744.90 C 501.71 744.69 499.52 744.29 497.33 743.91 C 487.02 699.60 481.05 654.39 477.41 609.07 Z" />
<path fill="#252525" opacity="1.00" d=" M 238.85 640.53 C 243.96 645.67 248.41 651.43 253.50 656.60 C 278.28 682.29 307.75 703.19 339.38 719.59 C 342.55 720.84 343.52 724.32 345.08 727.02 C 363.73 761.92 387.86 794.24 418.09 819.95 C 419.35 821.07 420.52 822.27 421.70 823.49 C 405.20 817.19 389.66 808.58 374.57 799.46 C 314.38 762.22 265.84 706.03 238.85 640.53 Z" />
<path fill="#252525" opacity="1.00" d=" M 856.07 655.07 C 860.57 650.35 864.66 645.25 869.19 640.55 C 840.11 711.26 785.84 771.02 719.00 807.97 C 708.35 813.61 697.68 819.37 686.33 823.50 C 693.81 816.27 701.95 809.73 709.04 802.08 C 727.34 783.22 742.95 761.86 756.24 739.22 C 756.91 737.91 757.32 736.49 757.76 735.10 C 760.11 733.05 762.47 731.01 764.85 729.00 C 764.29 728.13 763.74 727.28 763.21 726.43 C 764.61 723.87 765.76 720.78 768.71 719.62 C 800.96 702.87 831.01 681.49 856.07 655.07 Z" />
<path fill="#252525" opacity="1.00" d=" M 690.68 674.35 C 700.83 688.48 710.93 702.64 721.05 716.79 C 703.45 723.70 685.37 729.39 667.02 733.98 C 665.09 734.42 663.12 734.67 661.17 734.96 C 670.98 714.74 680.84 694.55 690.68 674.35 Z" />
<path fill="#252525" opacity="1.00" d=" M 645.17 682.39 C 649.51 700.25 653.75 718.15 658.05 736.02 C 650.23 737.74 642.41 739.55 634.46 740.57 C 637.20 727.09 639.94 713.60 642.09 700.00 C 643.21 694.14 643.58 688.15 645.17 682.39 Z" />
<path fill="#252525" opacity="1.00" d=" M 376.91 736.88 C 408.89 749.14 442.10 758.30 475.99 763.35 C 477.23 763.74 479.30 763.59 479.62 765.22 C 487.23 792.96 496.19 820.88 512.10 845.11 C 494.54 841.25 478.03 833.58 462.68 824.36 C 427.41 802.88 398.68 771.74 376.91 736.88 Z" />
<path fill="#252525" opacity="1.00" d=" M 628.91 763.93 C 663.85 758.73 698.18 749.63 731.14 736.91 C 715.87 761.53 697.02 784.03 675.01 802.91 C 652.03 822.21 625.48 838.32 595.99 845.12 C 612.19 820.50 621.01 792.05 628.91 763.93 Z" />
<path fill="#252525" opacity="1.00" d=" M 503.56 766.96 C 537.12 770.15 570.96 770.15 604.52 766.96 C 599.30 785.79 592.68 804.34 583.57 821.66 C 577.88 831.74 571.89 842.63 561.36 848.38 C 556.74 851.28 550.56 851.01 546.06 848.01 C 536.69 842.68 531.06 833.08 525.82 824.03 C 515.98 806.07 509.02 786.65 503.56 766.96 Z" />
</g>
</svg>
